<?xml version="1.0" encoding="UTF-8" standalone="no"?>
<!-- Created with Inkscape (http://www.inkscape.org/) -->

<svg
   xmlns:osb="http://www.openswatchbook.org/uri/2009/osb"
   xmlns:dc="http://purl.org/dc/elements/1.1/"
   xmlns:cc="http://creativecommons.org/ns#"
   xmlns:rdf="http://www.w3.org/1999/02/22-rdf-syntax-ns#"
   xmlns:svg="http://www.w3.org/2000/svg"
   xmlns="http://www.w3.org/2000/svg"
   xmlns:sodipodi="http://sodipodi.sourceforge.net/DTD/sodipodi-0.dtd"
   xmlns:inkscape="http://www.inkscape.org/namespaces/inkscape"
   width="50"
   height="50"
   viewBox="0 0 13.229166 13.229167"
   version="1.1"
   id="svg8"
   sodipodi:docname="armor.svg"
   inkscape:version="0.92.3 (2405546, 2018-03-11)">
  <defs
     id="defs2">
    <inkscape:path-effect
       effect="spiro"
       id="path-effect6397"
       is_visible="true" />
    <inkscape:path-effect
       effect="spiro"
       id="path-effect6158"
       is_visible="true" />
    <linearGradient
       id="linearGradient6040"
       osb:paint="solid">
      <stop
         style="stop-color:#28170b;stop-opacity:1;"
         offset="0"
         id="stop6038" />
    </linearGradient>
  </defs>
  <sodipodi:namedview
     id="base"
     pagecolor="#ffffff"
     bordercolor="#666666"
     borderopacity="1.0"
     inkscape:pageopacity="0.0"
     inkscape:pageshadow="2"
     inkscape:zoom="12.4"
     inkscape:cx="25.976978"
     inkscape:cy="22.815537"
     inkscape:document-units="mm"
     inkscape:current-layer="layer1"
     showgrid="true"
     units="px"
     inkscape:snap-grids="true"
     inkscape:window-width="1535"
     inkscape:window-height="876"
     inkscape:window-x="65"
     inkscape:window-y="24"
     inkscape:window-maximized="1">
    <inkscape:grid
       type="xygrid"
       id="grid3713" />
  </sodipodi:namedview>
  <metadata
     id="metadata5">
    <rdf:RDF>
      <cc:Work
         rdf:about="">
        <dc:format>image/svg+xml</dc:format>
        <dc:type
           rdf:resource="http://purl.org/dc/dcmitype/StillImage" />
        <dc:title></dc:title>
      </cc:Work>
    </rdf:RDF>
  </metadata>
  <g
     inkscape:label="Layer 1"
     inkscape:groupmode="layer"
     id="layer1"
     transform="translate(0,-283.77082)">
    <path
       style="fill:#000000;fill-opacity:1;fill-rule:nonzero;stroke:#ff0000;stroke-width:0.08064516;stroke-opacity:1"
       d=""
       id="path6370"
       inkscape:connector-curvature="0"
       transform="matrix(0.26458333,0,0,0.26458333,0,283.77082)" />
    <path
       style="fill:#1a1a1a;fill-opacity:1;fill-rule:nonzero;stroke:#ff0000;stroke-width:0.08064516;stroke-opacity:1"
       d=""
       id="path6372"
       inkscape:connector-curvature="0"
       transform="matrix(0.26458333,0,0,0.26458333,0,283.77082)" />
    <path
       style="fill:none;stroke:#000000;stroke-width:0.26458332px;stroke-linecap:butt;stroke-linejoin:miter;stroke-opacity:1"
       d="m 1.3229166,286.41665 c 0.8102333,-0.2964 1.665778,-0.40552 2.6458334,0"
       id="path6533"
       inkscape:connector-curvature="0"
       sodipodi:nodetypes="cc" />
    <path
       style="fill:none;stroke:#000000;stroke-width:0.26458332px;stroke-linecap:butt;stroke-linejoin:miter;stroke-opacity:1"
       d="m 3.96875,286.41665 c 1.1329648,0.72227 2.2646954,1.43988 3.1749999,1.32292"
       id="path6537"
       inkscape:connector-curvature="0"
       sodipodi:nodetypes="cc" />
    <path
       style="fill:none;stroke:#000000;stroke-width:0.26458332px;stroke-linecap:butt;stroke-linejoin:miter;stroke-opacity:1"
       d="m 1.3229166,286.41665 c 0.5354857,0.79193 1.0243208,1.6283 1.3229167,2.64584 l 1.3229167,6.61458 h 3.4395833"
       id="path6539"
       inkscape:connector-curvature="0"
       sodipodi:nodetypes="cccc" />
    <path
       style="fill:none;stroke:#000000;stroke-width:0.26458332px;stroke-linecap:butt;stroke-linejoin:miter;stroke-opacity:1"
       d="m 3.96875,286.41665 c 0.5986447,0.8602 1.0541573,1.74014 1.3229166,2.64584 -1.0569406,0.43399 -1.8696715,0.26234 -2.6458333,0"
       id="path6541"
       inkscape:connector-curvature="0"
       sodipodi:nodetypes="ccc" />
    <path
       style="fill:none;stroke:#000000;stroke-width:0.26458332px;stroke-linecap:butt;stroke-linejoin:miter;stroke-opacity:1"
       d="m 7.1437499,287.73957 v 3.175"
       id="path6543"
       inkscape:connector-curvature="0" />
    <path
       style="fill:none;stroke:#000000;stroke-width:0.26458332px;stroke-linecap:butt;stroke-linejoin:miter;stroke-opacity:1"
       d="m 7.1437499,290.91457 c -0.8660115,0.14112 -1.7054672,0.51745 -2.6458333,0 -1.012162,-0.10558 -1.4414872,-0.96669 -1.8520833,-1.85208"
       id="path6545"
       inkscape:connector-curvature="0"
       sodipodi:nodetypes="ccc" />
    <path
       style="fill:none;stroke:#000000;stroke-width:0.26458332px;stroke-linecap:butt;stroke-linejoin:miter;stroke-opacity:1"
       d="m 7.1437499,291.70832 c -0.8382924,0.0239 -1.7112764,0.0325 -1.8520833,1.32292 1e-7,1.18256 1e-7,1.81541 1e-7,2.38125"
       id="path6547"
       inkscape:connector-curvature="0"
       sodipodi:nodetypes="ccc" />
    <path
       style="fill:none;stroke:#000000;stroke-width:0.26458332px;stroke-linecap:butt;stroke-linejoin:miter;stroke-opacity:1"
       d="m 5.5562499,294.35415 c 0.6373742,0.43831 1.1304949,0.25691 1.5875,0"
       id="path6549"
       inkscape:connector-curvature="0"
       sodipodi:nodetypes="cc" />
    <path
       style="fill:none;stroke:#000000;stroke-width:0.26458332px;stroke-linecap:butt;stroke-linejoin:miter;stroke-opacity:1"
       d="m 7.1437499,291.70832 v 2.38125"
       id="path6551"
       inkscape:connector-curvature="0" />
    <path
       style="fill:none;stroke:#000000;stroke-width:0.26458332px;stroke-linecap:butt;stroke-linejoin:miter;stroke-opacity:1"
       d="m 7.1437499,294.35415 v 1.32292"
       id="path6553"
       inkscape:connector-curvature="0" />
    <path
       style="fill:none;stroke:#000000;stroke-width:0.26458332px;stroke-linecap:butt;stroke-linejoin:miter;stroke-opacity:1"
       d="m 11.90625,286.41665 c -0.810233,-0.2964 -1.665778,-0.40552 -2.6458333,0"
       id="path6533-5"
       inkscape:connector-curvature="0"
       sodipodi:nodetypes="cc" />
    <path
       style="fill:none;stroke:#000000;stroke-width:0.26458332px;stroke-linecap:butt;stroke-linejoin:miter;stroke-opacity:1"
       d="M 9.2604167,286.41665 C 8.127452,287.13892 6.995721,287.85653 6.085417,287.73957"
       id="path6537-3"
       inkscape:connector-curvature="0"
       sodipodi:nodetypes="cc" />
    <path
       style="fill:none;stroke:#000000;stroke-width:0.26458332px;stroke-linecap:butt;stroke-linejoin:miter;stroke-opacity:1"
       d="m 11.90625,286.41665 c -0.535486,0.79193 -1.024321,1.6283 -1.322917,2.64584 l -1.3229163,6.61458 H 5.820833"
       id="path6539-5"
       inkscape:connector-curvature="0"
       sodipodi:nodetypes="cccc" />
    <path
       style="fill:none;stroke:#000000;stroke-width:0.26458332px;stroke-linecap:butt;stroke-linejoin:miter;stroke-opacity:1"
       d="m 9.2604167,286.41665 c -0.5986447,0.8602 -1.0541577,1.74014 -1.3229167,2.64584 1.0569406,0.43399 1.869672,0.26234 2.645833,0"
       id="path6541-6"
       inkscape:connector-curvature="0"
       sodipodi:nodetypes="ccc" />
    <path
       style="fill:none;stroke:#000000;stroke-width:0.26458332px;stroke-linecap:butt;stroke-linejoin:miter;stroke-opacity:1"
       d="m 6.085417,287.73957 v 3.175"
       id="path6543-2"
       inkscape:connector-curvature="0" />
    <path
       style="fill:none;stroke:#000000;stroke-width:0.26458332px;stroke-linecap:butt;stroke-linejoin:miter;stroke-opacity:1"
       d="m 6.085417,290.91457 c 0.866011,0.14112 1.705467,0.51745 2.645833,0 1.012162,-0.10558 1.441487,-0.96669 1.852083,-1.85208"
       id="path6545-9"
       inkscape:connector-curvature="0"
       sodipodi:nodetypes="ccc" />
    <path
       style="fill:none;stroke:#000000;stroke-width:0.26458332px;stroke-linecap:butt;stroke-linejoin:miter;stroke-opacity:1"
       d="m 6.085417,291.70832 c 0.838292,0.0239 1.711276,0.0325 1.852083,1.32292 0,1.18256 0,1.81541 0,2.38125"
       id="path6547-1"
       inkscape:connector-curvature="0"
       sodipodi:nodetypes="ccc" />
    <path
       style="fill:none;stroke:#000000;stroke-width:0.26458332px;stroke-linecap:butt;stroke-linejoin:miter;stroke-opacity:1"
       d="m 7.672917,294.35415 c -0.637374,0.43831 -1.130495,0.25691 -1.5875,0"
       id="path6549-2"
       inkscape:connector-curvature="0"
       sodipodi:nodetypes="cc" />
    <path
       style="fill:none;stroke:#000000;stroke-width:0.26458332px;stroke-linecap:butt;stroke-linejoin:miter;stroke-opacity:1"
       d="m 6.085417,291.70832 v 2.38125"
       id="path6551-7"
       inkscape:connector-curvature="0" />
    <path
       style="fill:none;stroke:#000000;stroke-width:0.26458332px;stroke-linecap:butt;stroke-linejoin:miter;stroke-opacity:1"
       d="m 6.085417,294.35415 v 1.32292"
       id="path6553-0"
       inkscape:connector-curvature="0" />
    <path
       style="fill:#504416;fill-opacity:1;fill-rule:nonzero;stroke:#445500;stroke-width:0.08064516;stroke-opacity:1"
       d="m 19.424787,27.320469 c -0.668369,-0.141563 -1.2146,-0.328906 -1.774193,-0.608503 -0.243952,-0.121889 -0.625,-0.248127 -0.846774,-0.280528 -2.166753,-0.316565 -3.86465,-1.811545 -5.356942,-4.716733 -0.334176,-0.650571 -0.392731,-0.816734 -0.275625,-0.782153 2.271428,0.670758 4.643778,0.769027 6.761599,0.280082 0.6864,-0.15847 2.374671,-0.717644 2.607706,-0.8637 0.08685,-0.05443 0.05798,-0.22973 -0.149067,-0.905256 -0.586562,-1.913725 -1.71884,-4.466314 -2.852989,-6.431737 -0.342089,-0.592821 -0.608823,-1.091013 -0.592743,-1.107093 0.01608,-0.01608 0.281044,0.127323 0.58881,0.318673 1.527393,0.949641 3.27594,1.86256 4.672476,2.439509 0.357471,0.147681 0.564249,0.268097 0.46371,0.270038 l -0.181451,0.0035 v 6.048388 6.048387 h 0.241935 c 0.30267,0 0.313481,0.136486 0.02016,0.254543 -0.349162,0.140533 -2.707859,0.163633 -3.326613,0.03258 z"
       id="path6597"
       inkscape:connector-curvature="0"
       transform="matrix(0.26458333,0,0,0.26458333,0,283.77082)" />
    <path
       style="fill:#504416;fill-opacity:1;fill-rule:nonzero;stroke:#445500;stroke-width:0.08064516;stroke-opacity:1"
       d="m 27.811884,27.396834 c -0.06653,-0.01659 -0.257056,-0.05237 -0.423387,-0.07951 -0.375611,-0.06129 -0.422638,-0.283974 -0.05997,-0.283974 h 0.242448 l -0.02067,-6.024596 -0.02068,-6.024595 -0.201613,-0.04894 -0.201613,-0.04895 0.232053,-0.05961 c 0.703953,-0.180825 3.155239,-1.422364 4.900844,-2.482205 0.427932,-0.259817 0.797572,-0.472396 0.821423,-0.472396 0.02385,0 -0.156588,0.335686 -0.400975,0.745968 -0.657668,1.104108 -1.87195,3.582169 -2.341393,4.778226 -0.42156,1.07406 -1.01604,2.867955 -0.966749,2.917246 0.01514,0.01514 0.413011,0.172786 0.884166,0.350334 2.648465,0.998034 5.20508,1.125907 8.037082,0.401985 0.331065,-0.08463 0.616529,-0.139273 0.634366,-0.121437 0.04987,0.04987 -0.759888,1.535335 -1.231067,2.258323 -1.202521,1.84518 -2.465078,2.801556 -4.158459,3.149999 -0.377017,0.07758 -0.945463,0.261465 -1.263214,0.40864 -1.068647,0.494971 -1.622322,0.611057 -3.051303,0.639751 -0.709677,0.01425 -1.344758,0.01233 -1.41129,-0.0043 z"
       id="path6599"
       inkscape:connector-curvature="0"
       transform="matrix(0.26458333,0,0,0.26458333,0,283.77082)" />
    <path
       style="fill:#28220b;fill-opacity:1;fill-rule:nonzero;stroke:#504416;stroke-width:0.08064516;stroke-opacity:1"
       d="m 13.363597,34.10996 c -1.13774,-5.688509 -2.060996,-10.350795 -2.05168,-10.360637 0.0093,-0.0098 0.210945,0.253378 0.448063,0.584932 0.571363,0.798918 1.68933,1.866139 2.385681,2.277393 0.679373,0.401228 1.238763,0.614766 2.139468,0.816709 0.373989,0.08385 0.930624,0.2681 1.236965,0.409445 1.68303,0.776544 3.608737,0.87967 6.371146,0.341191 l 1.121677,-0.21865 1.096065,0.220237 c 2.726602,0.547868 4.548387,0.44088 6.494625,-0.381408 0.357404,-0.151004 0.965888,-0.347767 1.352185,-0.437251 1.696652,-0.393023 3.020685,-1.326415 4.266238,-3.007534 0.311878,-0.42094 0.478371,-0.593283 0.450377,-0.466202 -0.02443,0.110887 -0.959711,4.783266 -2.078408,10.383065 l -2.033996,10.181451 h -3.496027 -3.496027 v -1.560482 -1.560482 l 0.519705,-0.220878 c 0.285837,-0.121483 0.686486,-0.326647 0.890329,-0.45592 l 0.370625,-0.235043 -0.305653,-0.433316 -0.305651,-0.433316 -0.57524,0.314732 c -0.473066,0.258828 -0.583629,0.29287 -0.622469,0.191654 -0.0278,-0.07245 -0.146631,-0.123078 -0.288858,-0.123078 -0.168843,0 -0.270068,-0.05466 -0.336036,-0.181451 -0.05192,-0.0998 -0.102418,-0.191356 -0.112211,-0.20346 -0.0098,-0.01211 -0.340562,0.133057 -0.735044,0.322581 -0.950076,0.456452 -1.219177,0.45664 -2.12853,0.0015 l -0.685483,-0.343101 -0.147856,0.201972 c -0.09924,0.135566 -0.225185,0.201967 -0.383065,0.201967 -0.155311,0 -0.235208,0.04109 -0.235208,0.120968 0,0.06653 -0.01959,0.120968 -0.04354,0.120968 -0.07568,0 -0.713494,-0.337233 -0.941223,-0.497655 l -0.218631,-0.154012 -0.283402,0.386318 c -0.155872,0.212474 -0.284303,0.424012 -0.285403,0.470084 -0.0028,0.115464 0.747336,0.557104 1.308485,0.770413 l 0.46371,0.176269 v 1.561388 1.561388 H 18.960755 15.43221 Z m 7.209514,5.080645 c 0.02786,-5.362387 0.016,-5.228127 0.561461,-6.350807 0.243957,-0.502113 1.073116,-1.451613 1.267635,-1.451613 0.06114,0 0.0871,1.141478 0.0871,3.830646 v 3.830645 h 0.523454 0.523454 l 0.0209,-4.089451 0.0209,-4.08945 0.483871,-0.100579 c 0.61494,-0.127824 1.239899,-0.127824 1.854839,0 l 0.483871,0.100579 0.0209,4.08945 0.0209,4.089451 h 0.562995 0.562995 l 0.02094,-3.850807 0.02094,-3.850806 0.456072,0.427861 c 0.478591,0.448988 0.906392,1.164012 1.167392,1.951171 0.133802,0.403539 0.15087,0.88729 0.189221,5.362903 l 0.04215,4.919355 0.548433,0.02394 0.548432,0.02394 -0.02709,-4.862649 c -0.02639,-4.73619 -0.03176,-4.879426 -0.20651,-5.50781 -0.413713,-1.48766 -1.214665,-2.651508 -2.246274,-3.264013 -0.259505,-0.154079 -0.500849,-0.326458 -0.536319,-0.383065 -0.03547,-0.05661 -0.171559,-0.102922 -0.302419,-0.102922 -0.205795,0 -0.237928,-0.02995 -0.237931,-0.221774 l -3e-6,-0.221774 -2.016126,-5.1e-5 -2.016127,-5e-5 v 0.221825 c 0,0.192708 -0.03176,0.221824 -0.241935,0.221824 -0.138114,0 -0.24328,0.04326 -0.245069,0.100807 -0.0017,0.05544 -0.192247,0.191532 -0.423387,0.302419 -0.555502,0.266497 -1.481742,1.19923 -1.801886,1.814516 -0.329114,0.632526 -0.561027,1.363831 -0.713039,2.248467 -0.100102,0.582544 -0.123071,1.539517 -0.123071,5.127688 0,2.426314 0.02419,4.435674 0.05376,4.465243 0.02957,0.02957 0.282261,0.05376 0.561537,0.05376 h 0.507774 z"
       id="path6601"
       inkscape:connector-curvature="0"
       transform="matrix(0.26458333,0,0,0.26458333,0,283.77082)" />
    <path
       style="fill:#28220b;fill-opacity:1;fill-rule:nonzero;stroke:#504416;stroke-width:0.05702474;stroke-opacity:1"
       d="M 13.441341,34.220494 C 12.32234,28.618225 11.415399,24.025945 11.425916,24.015428 c 0.01052,-0.01052 0.159183,0.16472 0.330369,0.389414 0.428469,0.562399 1.186741,1.34965 1.689633,1.754205 0.799774,0.643386 1.437087,0.946596 2.69172,1.280623 0.409555,0.109037 1.09835,0.338549 1.530655,0.510025 1.047844,0.415632 1.687164,0.546224 2.867413,0.585719 1.053586,0.03526 1.936914,-0.04546 3.278923,-0.29963 1.174976,-0.222533 1.231043,-0.224168 2.054386,-0.05991 1.339917,0.267317 1.811837,0.327592 2.821229,0.360336 1.508116,0.04892 2.43752,-0.11035 3.866361,-0.662574 0.400553,-0.154808 1.035279,-0.363306 1.410502,-0.463329 1.386364,-0.369563 2.285217,-0.883464 3.281859,-1.876335 0.332074,-0.330817 0.764401,-0.814964 0.960727,-1.075881 0.196327,-0.260918 0.364868,-0.466207 0.374536,-0.456198 0.0097,0.01001 -0.898657,4.59871 -2.018502,10.197113 l -2.036081,10.178917 -3.461436,0.0147 -3.461436,0.0147 v -1.508856 -1.508856 l 0.698553,-0.340249 c 0.384204,-0.187137 0.778109,-0.393747 0.875345,-0.459133 l 0.176792,-0.118883 0.04135,1.781761 c 0.02274,0.979968 0.04583,1.785455 0.05131,1.789971 0.0055,0.0045 0.266571,0.01755 0.580207,0.02897 l 0.570248,0.02076 -0.01918,-4.305368 c -0.02272,-5.101439 -0.04708,-5.632192 -0.292968,-6.38322 -0.4443,-1.357044 -1.180841,-2.387318 -2.139921,-2.993323 -0.188182,-0.118905 -0.397145,-0.266581 -0.464363,-0.328169 -0.06722,-0.06159 -0.234015,-0.144826 -0.370661,-0.184974 -0.218027,-0.06406 -0.250634,-0.09496 -0.266315,-0.252394 L 27.0293,29.465955 h -2.049277 -2.049278 v 0.192298 c 0,0.180557 -0.01406,0.194547 -0.230281,0.229122 -0.126655,0.02025 -0.244232,0.07318 -0.261283,0.117615 -0.01705,0.04443 -0.214944,0.188629 -0.43976,0.320432 -0.264757,0.155218 -0.61378,0.446727 -0.99073,0.827472 -0.515932,0.521127 -0.614767,0.654975 -0.870975,1.179527 -0.347317,0.711087 -0.601195,1.659445 -0.687455,2.567976 -0.06559,0.690817 -0.05551,9.068437 0.01098,9.134903 0.02064,0.02063 0.283664,0.05219 0.584504,0.07014 l 0.546982,0.03263 0.0042,-1.961476 c 0.0085,-4.018797 0.09502,-7.866603 0.185832,-8.267094 0.169161,-0.746017 0.614956,-1.522626 1.235019,-2.151498 0.164087,-0.166418 0.314749,-0.28618 0.334804,-0.266139 0.02005,0.02004 0.04929,1.734362 0.06498,3.8096 l 0.02851,3.773161 0.547971,0.01622 0.54797,0.01622 0.03653,-0.266539 c 0.02009,-0.146596 0.03653,-1.992178 0.03653,-4.101293 v -3.834754 l 0.384917,-0.07774 c 0.211704,-0.04276 0.654359,-0.07774 0.983677,-0.07774 0.329318,0 0.771972,0.03498 0.983677,0.07774 l 0.384917,0.07774 v 2.2082 c 0,1.214509 0.01698,3.059205 0.03774,4.099324 l 0.03774,1.891125 h 0.580245 0.580243 l 0.03774,-2.523345 c 0.02076,-1.387839 0.03884,-3.11355 0.0402,-3.834913 l 0.0025,-1.311569 0.394278,0.416107 c 0.635865,0.671073 1.088803,1.536523 1.199066,2.291114 0.02991,0.204663 0.07071,1.693663 0.09068,3.308889 l 0.0363,2.936774 -0.300919,-0.427686 c -0.165507,-0.235227 -0.30768,-0.436182 -0.315941,-0.446567 -0.0083,-0.01039 -0.260383,0.113389 -0.560271,0.275055 -0.51689,0.278647 -0.551915,0.289269 -0.673351,0.204212 -0.07045,-0.04935 -0.187709,-0.08972 -0.260564,-0.08972 -0.133709,0 -0.372733,-0.194619 -0.42254,-0.34404 -0.02091,-0.06273 -0.173631,-0.01489 -0.678465,0.212507 -1.141636,0.514244 -1.219597,0.515231 -2.239694,0.02835 l -0.675817,-0.322557 -0.128519,0.149413 c -0.15422,0.179291 -0.323817,0.276324 -0.482969,0.276324 -0.06452,0 -0.148088,0.04927 -0.185699,0.109498 -0.06659,0.106622 -0.07597,0.105671 -0.356888,-0.03618 -0.158677,-0.08013 -0.395772,-0.219214 -0.526878,-0.309085 -0.131105,-0.08987 -0.26397,-0.163404 -0.295255,-0.163404 -0.03128,0 -0.187906,0.1959 -0.348048,0.435332 -0.282125,0.421812 -0.288013,0.438817 -0.189581,0.547583 0.147391,0.162865 0.778829,0.51839 1.255886,0.707114 l 0.412726,0.163275 7.02e-4,1.525412 7.04e-4,1.525412 h -3.470818 -3.470818 z"
       id="path6603"
       inkscape:connector-curvature="0"
       transform="matrix(0.26458333,0,0,0.26458333,0,283.77082)" />
    <path
       style="fill:#504416;fill-opacity:1;fill-rule:nonzero;stroke:#504416;stroke-width:0.05702474;stroke-opacity:1"
       d="m 20.6502,39.437526 c 7.74e-4,-1.527167 0.113381,-5.141016 0.169943,-5.45387 0.06814,-0.376882 0.273583,-0.88996 0.5222,-1.30413 0.263589,-0.439113 0.91078,-1.135928 0.963012,-1.036851 0.02197,0.04167 0.05664,1.729217 0.07707,3.750113 0.02042,2.020895 0.04309,3.678917 0.05037,3.684494 0.0073,0.0056 0.262832,0.02698 0.567884,0.04756 l 0.554639,0.03743 0.0353,-0.140651 c 0.01941,-0.07736 0.0521,-1.930721 0.07263,-4.118583 l 0.03733,-3.977931 0.228099,-0.05468 c 0.295564,-0.07084 1.814283,-0.07086 2.109916,-1.6e-5 l 0.228099,0.05466 0.06429,4.103286 c 0.03536,2.256808 0.06744,4.109702 0.07128,4.117543 0.0038,0.0078 0.272591,0.01426 0.597212,0.01426 h 0.590221 l 0.03705,-0.521983 c 0.02038,-0.287091 0.03705,-1.104054 0.03705,-1.815474 0,-0.711421 0.01699,-2.183206 0.03776,-3.270635 0.03758,-1.968016 0.03828,-1.976681 0.151233,-1.876878 0.270695,0.239182 0.79374,0.965316 1.007191,1.398269 0.376625,0.763923 0.393925,0.927097 0.446713,4.213494 0.02587,1.61049 0.04338,2.934359 0.03892,2.941931 -0.0045,0.0076 -0.127943,-0.152811 -0.274405,-0.356405 -0.146463,-0.203594 -0.292608,-0.370171 -0.32477,-0.370171 -0.03216,0 -0.285219,0.113878 -0.562352,0.253062 l -0.503876,0.253062 -0.32707,-0.120484 c -0.18398,-0.06777 -0.365073,-0.178485 -0.413938,-0.253062 -0.04778,-0.07292 -0.119193,-0.132578 -0.158701,-0.132578 -0.03951,0 -0.376567,0.132906 -0.749019,0.295347 -0.943232,0.411379 -1.11776,0.409072 -2.067711,-0.02734 l -0.706227,-0.324441 -0.220589,0.199289 c -0.121325,0.10961 -0.266934,0.19929 -0.323576,0.19929 -0.05664,0 -0.152798,0.03768 -0.213678,0.08372 -0.168196,0.127217 -0.244292,0.107058 -0.737834,-0.195459 -0.527873,-0.323559 -0.503677,-0.33021 -0.887006,0.243828 l -0.225107,0.337102 4.44e-4,-0.876126 z"
       id="path6605"
       inkscape:connector-curvature="0"
       transform="matrix(0.26458333,0,0,0.26458333,0,283.77082)" />
    <path
       style="fill:#504416;fill-opacity:1;fill-rule:nonzero;stroke:#445500;stroke-width:0.05702474;stroke-opacity:1"
       d="m 15.488997,44.278131 c -0.01884,-0.05383 -2.59699,-13.002348 -3.826796,-19.219759 -0.07936,-0.401219 -0.135319,-0.75641 -0.124351,-0.789313 0.01097,-0.0329 0.140268,0.09333 0.287334,0.280523 0.429237,0.546349 1.345295,1.449797 1.84063,1.81529 0.541623,0.399649 1.137541,0.702042 1.766178,0.896231 0.940805,0.290619 1.905064,0.606017 2.623138,0.857997 0.979083,0.343572 1.575052,0.433945 2.863533,0.43423 1.078555,2.39e-4 1.716781,-0.06505 3.090578,-0.316163 0.954023,-0.174382 1.083815,-0.17392 2.01255,0.0072 1.223095,0.238484 1.892834,0.306931 3.014809,0.30811 1.409051,0.0015 1.829466,-0.07431 3.474302,-0.62633 0.737044,-0.247358 1.53254,-0.50545 1.767767,-0.573538 0.622802,-0.180273 1.336262,-0.50321 1.824791,-0.825964 0.506968,-0.334936 1.524145,-1.299606 2.032644,-1.927718 0.199317,-0.246203 0.362395,-0.40966 0.362395,-0.363239 0,0.07376 -3.891846,19.651178 -3.972961,19.98545 l -0.03113,0.128305 h -3.415302 -3.415302 l 7.47e-4,-1.468387 7.47e-4,-1.468387 0.808903,-0.411632 c 0.444896,-0.226398 0.814509,-0.406026 0.821361,-0.399173 0.0069,0.0069 0.03929,0.779186 0.07208,1.716297 0.03279,0.937111 0.07303,1.717246 0.08942,1.733634 0.01639,0.01639 0.286798,0.04217 0.600912,0.0573 l 0.571112,0.0275 -0.0025,-3.186753 C 30.623382,36.877947 30.556765,34.434587 30.43289,33.845565 30.196731,32.722633 29.424028,31.364974 28.677842,30.761901 28.223691,30.394853 27.592829,29.969147 27.346688,29.863639 27.151877,29.780133 27.0981,29.72588 27.08345,29.598068 l -0.01841,-0.160625 h -2.081403 -2.081403 l -0.01774,0.183612 c -0.01495,0.15472 -0.04849,0.192101 -0.21312,0.237559 -0.107458,0.02967 -0.233785,0.09235 -0.280726,0.139293 -0.04694,0.04694 -0.25897,0.201074 -0.471177,0.342517 -0.568833,0.379148 -1.498061,1.350675 -1.726361,1.804947 -0.267622,0.532513 -0.446084,1.02885 -0.615382,1.711489 l -0.148495,0.59876 -0.01944,4.772514 c -0.0185,4.541813 -0.0145,4.775082 0.08278,4.825626 0.05622,0.02921 0.33959,0.07112 0.629704,0.09313 l 0.527479,0.04002 v -1.860487 -1.860487 l 0.18533,0.139047 c 0.20439,0.153347 0.83321,0.484942 1.254544,0.661557 l 0.270868,0.113543 v 1.484669 1.48467 h -3.423274 c -2.687295,0 -3.428639,-0.01533 -3.448227,-0.07128 z"
       id="path6607"
       inkscape:connector-curvature="0"
       transform="matrix(0.26458333,0,0,0.26458333,0,283.77082)" />
    <path
       style="fill:none;stroke:#000000;stroke-width:0.26458332px;stroke-linecap:butt;stroke-linejoin:miter;stroke-opacity:1"
       d="m 5.2916666,295.41249 c -0.00365,-0.004 -0.014875,-0.008 -0.010938,-0.0118 0.00394,-0.004 0.010938,0.006 0.010938,0.0118 0,0.0317 -0.010938,0.0621 -0.010938,0.0938 0,0.0585 0.00555,0.10893 0.010938,0.17078"
       id="path6609"
       inkscape:connector-curvature="0" />
    <path
       style="fill:none;stroke:#000000;stroke-width:0.26458332px;stroke-linecap:butt;stroke-linejoin:miter;stroke-opacity:1"
       d="m 7.9374999,295.41249 c -4.498e-4,-0.004 -0.00525,-0.0114 -0.00132,-0.0118 0.00394,-4.4e-4 0.00132,0.008 0.00132,0.0118 0,0.0313 -0.00132,0.0625 -0.00132,0.0938 0,0.057 1.661e-4,0.11382 0.00132,0.17078"
       id="path6611"
       inkscape:connector-curvature="0" />
    <path
       style="fill:#786721;fill-opacity:1;fill-rule:nonzero;stroke:#504416;stroke-width:0.05702474;stroke-opacity:1"
       d="m 13.835299,20.397692 c -0.975029,-0.123067 -3.153868,-0.654085 -3.353284,-0.817249 -0.0439,-0.03592 -0.224321,-0.49215 -0.400941,-1.013848 C 9.3013392,16.263421 8.1082021,13.858073 6.45565,11.257792 L 5.8324111,10.27713 6.0417099,10.203092 c 1.2197899,-0.43149 3.3623197,-0.7423398 4.6002041,-0.6674221 1.332938,0.08067 2.812556,0.4035331 3.920155,0.8554051 0.110107,0.04492 0.930417,1.261704 1.596606,2.368281 0.913181,1.516844 1.859928,3.398225 2.443178,4.855097 0.270576,0.675858 0.736334,1.969073 0.736334,2.044491 0,0.09156 -1.382383,0.489857 -2.309502,0.665422 -0.537719,0.101826 -2.593584,0.149032 -3.193386,0.07333 z"
       id="path6613"
       inkscape:connector-curvature="0"
       transform="matrix(0.26458333,0,0,0.26458333,0,283.77082)" />
    <path
       style="fill:#786721;fill-opacity:1;fill-rule:nonzero;stroke:#504416;stroke-width:0.05702474;stroke-opacity:1"
       d="m 33.309248,20.373171 c -0.702327,-0.101083 -1.187272,-0.214224 -2.005242,-0.467839 l -0.665161,-0.206235 0.2224,-0.644984 c 0.705256,-2.045318 1.726852,-4.207991 2.946559,-6.237732 0.547526,-0.91115 1.451978,-2.29113 1.55824,-2.377508 0.147225,-0.119675 1.491003,-0.5342294 2.19062,-0.6758046 1.875654,-0.3795594 3.784289,-0.2870225 5.865923,0.2843996 0.403023,0.110632 0.742195,0.201149 0.753716,0.201149 0.01152,0 -0.167075,0.288688 -0.39688,0.641529 -1.780617,2.733949 -3.176248,5.539585 -3.983088,8.007201 l -0.226846,0.693777 -0.464214,0.144271 c -0.746904,0.232125 -1.557068,0.43247 -2.260493,0.558997 -0.8473,0.152405 -2.73217,0.194404 -3.535534,0.07878 z"
       id="path6615"
       inkscape:connector-curvature="0"
       transform="matrix(0.26458333,0,0,0.26458333,0,283.77082)" />
    <path
       style="fill:#786721;fill-opacity:1;fill-rule:nonzero;stroke:#c8ab37;stroke-width:0.05702474;stroke-opacity:1"
       d="m 24.470413,26.755976 c -0.1725,-0.04081 -0.461187,-0.103943 -0.641528,-0.140287 l -0.327892,-0.06608 v -5.490234 -5.490234 l 0.741321,-0.03297 c 0.407727,-0.01813 1.074917,-0.01813 1.482644,0 l 0.741321,0.03297 v 5.494277 c 0,3.021853 -0.0064,5.494481 -0.01426,5.494729 -0.0078,2.29e-4 -0.321619,0.0644 -0.697284,0.142562 -0.759393,0.157999 -0.836175,0.161303 -1.284326,0.05527 z"
       id="path6617"
       inkscape:connector-curvature="0"
       transform="matrix(0.26458333,0,0,0.26458333,0,283.77082)" />
    <path
       style="fill:#22280b;fill-opacity:1;fill-rule:nonzero;stroke:#504416;stroke-width:0.05702474;stroke-opacity:1"
       d="m 23.500993,42.985407 v -1.478055 l 0.470961,-0.0035 c 0.259029,-0.0019 0.600546,-0.02803 0.758925,-0.05807 0.177999,-0.03376 0.37379,-0.03459 0.512715,-0.0022 0.123614,0.02883 0.449287,0.05629 0.723719,0.06101 l 0.498966,0.0086 v 1.475116 1.475117 h -1.482643 -1.482643 z"
       id="path6619"
       inkscape:connector-curvature="0"
       transform="matrix(0.26458333,0,0,0.26458333,0,283.77082)" />
    <path
       sodipodi:type="star"
       style="fill:#22280b;fill-opacity:1;fill-rule:nonzero;stroke:#504416;stroke-width:0.26458332;stroke-opacity:1"
       id="path6621"
       sodipodi:sides="5"
       sodipodi:cx="9.9178733"
       sodipodi:cy="287.47703"
       sodipodi:r1="0.59162635"
       sodipodi:r2="0.29581317"
       sodipodi:arg1="0.46364761"
       sodipodi:arg2="1.0919661"
       inkscape:flatsided="false"
       inkscape:rounded="0"
       inkscape:randomized="0"
       d="m 10.44704,287.7416 -0.392873,-0.002 -0.2244058,0.32249 -0.1194654,-0.37428 -0.3760455,-0.11377 0.3190397,-0.22927 -0.008,-0.3928 0.3166428,0.23258 0.3710995,-0.129 -0.123344,0.37302 z"
       inkscape:transform-center-x="0.027228291"
       inkscape:transform-center-y="0.029969642" />
  </g>
</svg>
