<?xml version="1.0" encoding="UTF-8" standalone="no"?>
<!-- Created with Inkscape (http://www.inkscape.org/) -->

<svg
   xmlns:osb="http://www.openswatchbook.org/uri/2009/osb"
   xmlns:dc="http://purl.org/dc/elements/1.1/"
   xmlns:cc="http://creativecommons.org/ns#"
   xmlns:rdf="http://www.w3.org/1999/02/22-rdf-syntax-ns#"
   xmlns:svg="http://www.w3.org/2000/svg"
   xmlns="http://www.w3.org/2000/svg"
   xmlns:sodipodi="http://sodipodi.sourceforge.net/DTD/sodipodi-0.dtd"
   xmlns:inkscape="http://www.inkscape.org/namespaces/inkscape"
   width="50"
   height="50"
   viewBox="0 0 13.229166 13.229167"
   version="1.1"
   id="svg8"
   sodipodi:docname="belt.svg"
   inkscape:version="0.92.3 (2405546, 2018-03-11)">
  <defs
     id="defs2">
    <inkscape:path-effect
       effect="spiro"
       id="path-effect6397"
       is_visible="true" />
    <inkscape:path-effect
       effect="spiro"
       id="path-effect6158"
       is_visible="true" />
    <linearGradient
       id="linearGradient6040"
       osb:paint="solid">
      <stop
         style="stop-color:#28170b;stop-opacity:1;"
         offset="0"
         id="stop6038" />
    </linearGradient>
  </defs>
  <sodipodi:namedview
     id="base"
     pagecolor="#ffffff"
     bordercolor="#666666"
     borderopacity="1.0"
     inkscape:pageopacity="0.0"
     inkscape:pageshadow="2"
     inkscape:zoom="12.4"
     inkscape:cx="25.976978"
     inkscape:cy="22.815537"
     inkscape:document-units="mm"
     inkscape:current-layer="layer1"
     showgrid="true"
     units="px"
     inkscape:snap-grids="true"
     inkscape:window-width="1535"
     inkscape:window-height="876"
     inkscape:window-x="65"
     inkscape:window-y="24"
     inkscape:window-maximized="1">
    <inkscape:grid
       type="xygrid"
       id="grid3713" />
  </sodipodi:namedview>
  <metadata
     id="metadata5">
    <rdf:RDF>
      <cc:Work
         rdf:about="">
        <dc:format>image/svg+xml</dc:format>
        <dc:type
           rdf:resource="http://purl.org/dc/dcmitype/StillImage" />
        <dc:title></dc:title>
      </cc:Work>
    </rdf:RDF>
  </metadata>
  <g
     inkscape:label="Layer 1"
     inkscape:groupmode="layer"
     id="layer1"
     transform="translate(0,-283.77082)">
    <path
       style="fill:#000000;fill-opacity:1;fill-rule:nonzero;stroke:#ff0000;stroke-width:0.08064516;stroke-opacity:1"
       d=""
       id="path6370"
       inkscape:connector-curvature="0"
       transform="matrix(0.26458333,0,0,0.26458333,0,283.77082)" />
    <path
       style="fill:#1a1a1a;fill-opacity:1;fill-rule:nonzero;stroke:#ff0000;stroke-width:0.08064516;stroke-opacity:1"
       d=""
       id="path6372"
       inkscape:connector-curvature="0"
       transform="matrix(0.26458333,0,0,0.26458333,0,283.77082)" />
    <ellipse
       style="fill:none;fill-opacity:1;fill-rule:nonzero;stroke:#28220b;stroke-width:0.26458332;stroke-opacity:1"
       id="path6815-6"
       cx="6.6273856"
       cy="290.57742"
       rx="5.2916665"
       ry="1.984375" />
    <ellipse
       style="fill:none;fill-opacity:1;fill-rule:nonzero;stroke:#28220b;stroke-width:0.26458332;stroke-opacity:1"
       id="path6815"
       cx="6.614583"
       cy="289.72394"
       rx="5.2916665"
       ry="1.984375" />
    <path
       style="fill:#28170b;stroke:#28170b;stroke-width:0.26458332px;stroke-linecap:butt;stroke-linejoin:miter;stroke-opacity:1"
       d="m 1.3229166,289.85624 v 0.79375"
       id="path6834"
       inkscape:connector-curvature="0" />
    <path
       style="fill:#000000;stroke:#28170b;stroke-width:0.26458332px;stroke-linecap:butt;stroke-linejoin:miter;stroke-opacity:1"
       d="m 11.90625,289.85624 v 0.79375"
       id="path6836"
       inkscape:connector-curvature="0" />
    <path
       style="fill:#000000;fill-opacity:1;fill-rule:nonzero;stroke:#28170b;stroke-width:0.08064516;stroke-opacity:1"
       d="m 5.554354,22.42508 c 0.1689608,-2.990189 5.845463,-5.686501 13.858108,-6.582538 3.932632,-0.439778 8.930579,-0.36181 12.741935,0.198773 3.426964,0.504046 6.460158,1.369509 8.656143,2.469863 1.484063,0.743627 2.835598,1.866419 3.302439,2.743512 0.243326,0.457157 0.418875,1.229033 0.337694,1.484813 -0.04681,0.147481 -0.09779,0.122565 -0.548939,-0.268288 -2.887855,-2.501883 -8.144597,-4.112417 -15.215079,-4.661518 -1.497142,-0.11627 -5.741355,-0.117277 -7.258064,-0.0017 -7.096521,0.540664 -12.5352431,2.22007 -15.3040375,4.725686 -0.2681031,0.242619 -0.5130652,0.441126 -0.5443604,0.441126 -0.031295,0 -0.042923,-0.247368 -0.025839,-0.549706 z"
       id="path6838"
       inkscape:connector-curvature="0"
       transform="matrix(0.26458333,0,0,0.26458333,0,283.77082)" />
    <path
       style="fill:#502d16;fill-opacity:1;fill-rule:nonzero;stroke:#28170b;stroke-width:0.08064516;stroke-opacity:1"
       d="m 21.952784,32.598911 c -0.177419,-0.0144 -0.794355,-0.06453 -1.370967,-0.111397 C 16.302804,32.139698 12.247159,31.164649 9.5334295,29.831285 8.0780969,29.116222 7.4953528,28.728542 6.7495291,27.979249 5.9438739,27.169846 5.6850977,26.678407 5.6382297,25.86879 l -0.035905,-0.620239 0.4736169,0.44337 c 2.5312621,2.369611 7.8096354,4.055884 14.6268424,4.672814 1.831943,0.165783 6.316938,0.187421 8.145162,0.0393 6.89112,-0.558328 12.470823,-2.295676 15.014329,-4.675 0.291729,-0.2729 0.557784,-0.496181 0.59123,-0.496181 0.03345,0 0.04372,0.263105 0.02282,0.584678 -0.0524,0.80637 -0.349453,1.393737 -1.071929,2.119515 -2.377328,2.388192 -8.055087,4.166245 -14.784641,4.629973 -1.104485,0.07611 -5.842878,0.09878 -6.666972,0.03189 z"
       id="path6840"
       inkscape:connector-curvature="0"
       transform="matrix(0.26458333,0,0,0.26458333,0,283.77082)" />
    <path
       style="fill:#241c1c;stroke:#241c1c;stroke-width:0.26458332px;stroke-linecap:butt;stroke-linejoin:miter;stroke-opacity:1"
       d="m 5.2916666,291.44374 v 1.32291"
       id="path6842"
       inkscape:connector-curvature="0" />
    <path
       style="fill:none;stroke:#241c1c;stroke-width:0.26458332px;stroke-linecap:butt;stroke-linejoin:miter;stroke-opacity:1"
       d="m 7.9374999,291.44374 v 1.32291"
       id="path6844"
       inkscape:connector-curvature="0" />
    <path
       style="fill:none;stroke:#241c1c;stroke-width:0.26458332px;stroke-linecap:butt;stroke-linejoin:miter;stroke-opacity:1"
       d="M 5.2916666,291.44374 H 7.9374999"
       id="path6846"
       inkscape:connector-curvature="0" />
    <path
       style="fill:none;stroke:#241c1c;stroke-width:0.26458332px;stroke-linecap:butt;stroke-linejoin:miter;stroke-opacity:1"
       d="M 5.2916666,292.76665 H 7.9374999"
       id="path6848"
       inkscape:connector-curvature="0" />
    <path
       style="fill:none;stroke:#241c1c;stroke-width:0.26458332px;stroke-linecap:butt;stroke-linejoin:miter;stroke-opacity:1"
       d="M 6.6145832,291.9729 H 7.6729166"
       id="path6850"
       inkscape:connector-curvature="0" />
    <path
       style="fill:none;stroke:#483737;stroke-width:0.26458332px;stroke-linecap:butt;stroke-linejoin:miter;stroke-opacity:1"
       d="M 6.6145832,292.23749 H 7.6729166"
       id="path6852"
       inkscape:connector-curvature="0" />
    <path
       style="fill:none;stroke:#483737;stroke-width:0.26458332px;stroke-linecap:butt;stroke-linejoin:miter;stroke-opacity:1"
       d="M 6.6145832,291.44374 H 7.9374999"
       id="path6856"
       inkscape:connector-curvature="0" />
    <path
       style="fill:none;stroke:#483737;stroke-width:0.26458332px;stroke-linecap:butt;stroke-linejoin:miter;stroke-opacity:1"
       d="M 5.2916666,292.76665 H 6.6145832"
       id="path6858"
       inkscape:connector-curvature="0" />
    <path
       style="fill:none;stroke:#483737;stroke-width:0.26458332px;stroke-linecap:butt;stroke-linejoin:miter;stroke-opacity:1"
       d="m 5.2916666,291.44374 v 0.52916"
       id="path6860"
       inkscape:connector-curvature="0" />
    <path
       style="fill:none;stroke:#483737;stroke-width:0.26458332px;stroke-linecap:butt;stroke-linejoin:miter;stroke-opacity:1"
       d="m 7.9374999,292.23749 v 0.26458"
       id="path6862"
       inkscape:connector-curvature="0" />
    <path
       style="fill:none;stroke:#000000;stroke-width:0.26458332px;stroke-linecap:butt;stroke-linejoin:miter;stroke-opacity:1"
       d="M 8.4666666,291.9729 H 8.7312499"
       id="path6864"
       inkscape:connector-curvature="0" />
    <path
       style="fill:none;stroke:#000000;stroke-width:0.26458332px;stroke-linecap:butt;stroke-linejoin:miter;stroke-opacity:1"
       d="M 9.5249999,291.70832 H 9.7895832"
       id="path6868"
       inkscape:connector-curvature="0" />
    <path
       style="fill:none;stroke:#000000;stroke-width:0.26458332px;stroke-linecap:butt;stroke-linejoin:miter;stroke-opacity:1"
       d="m 10.31875,291.44374 h 0.264583"
       id="path6870"
       inkscape:connector-curvature="0" />
    <path
       style="fill:none;stroke:#000000;stroke-width:0.26458332px;stroke-linecap:butt;stroke-linejoin:miter;stroke-opacity:1"
       d="m 6.6145832,291.9729 v 0.26459"
       id="path6872"
       inkscape:connector-curvature="0" />
    <path
       style="fill:none;stroke:#000000;stroke-width:0.26458332px;stroke-linecap:butt;stroke-linejoin:miter;stroke-opacity:1"
       d="m 6.6145832,291.70832 v 0.26458"
       id="path6874"
       inkscape:connector-curvature="0" />
  </g>
</svg>
