<?xml version="1.0" encoding="UTF-8" standalone="no"?>
<!-- Created with Inkscape (http://www.inkscape.org/) -->

<svg
   xmlns:osb="http://www.openswatchbook.org/uri/2009/osb"
   xmlns:dc="http://purl.org/dc/elements/1.1/"
   xmlns:cc="http://creativecommons.org/ns#"
   xmlns:rdf="http://www.w3.org/1999/02/22-rdf-syntax-ns#"
   xmlns:svg="http://www.w3.org/2000/svg"
   xmlns="http://www.w3.org/2000/svg"
   xmlns:sodipodi="http://sodipodi.sourceforge.net/DTD/sodipodi-0.dtd"
   xmlns:inkscape="http://www.inkscape.org/namespaces/inkscape"
   width="50"
   height="50"
   viewBox="0 0 13.229166 13.229167"
   version="1.1"
   id="svg8"
   sodipodi:docname="boots.svg"
   inkscape:version="0.92.3 (2405546, 2018-03-11)">
  <defs
     id="defs2">
    <inkscape:path-effect
       effect="spiro"
       id="path-effect6397"
       is_visible="true" />
    <inkscape:path-effect
       effect="spiro"
       id="path-effect6158"
       is_visible="true" />
    <linearGradient
       id="linearGradient6040"
       osb:paint="solid">
      <stop
         style="stop-color:#28170b;stop-opacity:1;"
         offset="0"
         id="stop6038" />
    </linearGradient>
  </defs>
  <sodipodi:namedview
     id="base"
     pagecolor="#ffffff"
     bordercolor="#666666"
     borderopacity="1.0"
     inkscape:pageopacity="0.0"
     inkscape:pageshadow="2"
     inkscape:zoom="12.4"
     inkscape:cx="26.78343"
     inkscape:cy="22.896182"
     inkscape:document-units="mm"
     inkscape:current-layer="layer1"
     showgrid="true"
     units="px"
     inkscape:snap-grids="true"
     inkscape:window-width="1535"
     inkscape:window-height="876"
     inkscape:window-x="65"
     inkscape:window-y="24"
     inkscape:window-maximized="1">
    <inkscape:grid
       type="xygrid"
       id="grid3713" />
  </sodipodi:namedview>
  <metadata
     id="metadata5">
    <rdf:RDF>
      <cc:Work
         rdf:about="">
        <dc:format>image/svg+xml</dc:format>
        <dc:type
           rdf:resource="http://purl.org/dc/dcmitype/StillImage" />
        <dc:title />
      </cc:Work>
    </rdf:RDF>
  </metadata>
  <g
     inkscape:label="Layer 1"
     inkscape:groupmode="layer"
     id="layer1"
     transform="translate(0,-283.77082)">
    <path
       style="fill:#000000;fill-opacity:1;fill-rule:nonzero;stroke:#ff0000;stroke-width:0.00156081;stroke-opacity:1"
       d=""
       id="path6370"
       inkscape:connector-curvature="0" />
    <path
       style="fill:#1a1a1a;fill-opacity:1;fill-rule:nonzero;stroke:#ff0000;stroke-width:0.00156081;stroke-opacity:1"
       d=""
       id="path6372"
       inkscape:connector-curvature="0" />
    <path
       style="fill:#000000;stroke-width:0.00647293"
       d="m 2.7970617,294.55182 c -0.291245,-0.0133 -0.440155,-0.0506 -0.661506,-0.16549 -0.107237,-0.0557 -0.197646,-0.14765 -0.238653,-0.24282 -0.03044,-0.0707 -0.06456,-0.17862 -0.07731,-0.24465 -0.01524,-0.0789 -0.01786,-0.29854 -0.0067,-0.55955 l 0.0096,-0.22301 0.05224,-0.16219 c 0.120553,-0.37428 0.191353,-0.53847 0.267992,-0.62149 0.0207,-0.0224 0.08069,-0.0771 0.133299,-0.12148 0.174108,-0.14687 0.247238,-0.22063 0.29485,-0.29738 0.03464,-0.0558 0.07218,-0.2002 0.08073,-0.31044 0.0091,-0.1179 -0.04488,-0.25217 -0.151257,-0.37596 l -0.04302,-0.0501 -0.0035,0.0673 c -0.0032,0.0605 -0.01675,0.16537 -0.05461,0.42211 -0.02457,0.1666 -0.05914,0.28569 -0.105949,0.36493 -0.06017,0.10185 -0.200223,0.23161 -0.42684,0.39546 -0.132791,0.096 -0.164771,0.12498 -0.199451,0.18065 -0.04904,0.0787 -0.06586,0.14721 -0.07923,0.32269 -0.03363,0.44156 -0.03339,0.44014 -0.111018,0.65329 -0.03073,0.0844 -0.03155,0.0889 -0.03744,0.20743 -0.004,0.0809 -0.007,0.10134 -0.01615,0.11241 -0.02438,0.0294 -0.06645,0.005 -0.07481,-0.0439 -0.0024,-0.0138 -0.003,-0.062 -0.0014,-0.10719 0.0032,-0.0885 -0.0017,-0.0689 0.07841,-0.31523 0.03592,-0.11042 0.04507,-0.17679 0.06613,-0.47981 0.01508,-0.21695 0.0246,-0.26475 0.07332,-0.36831 0.03181,-0.0676 0.08221,-0.12326 0.174844,-0.19303 0.28091,-0.21159 0.343279,-0.26305 0.406763,-0.33562 0.0855,-0.0977 0.129039,-0.20728 0.156736,-0.39434 0.04507,-0.3044 0.05345,-0.37154 0.05947,-0.47666 l 0.0066,-0.11473 -0.03188,-0.074 c -0.02172,-0.0504 -0.0329,-0.0859 -0.03509,-0.1112 -0.0037,-0.0427 0.0093,-0.10735 0.03449,-0.17122 l 0.0164,-0.0417 v -0.35141 -0.35141 l 0.02366,-0.0811 c 0.05681,-0.19475 0.09511,-0.31861 0.132141,-0.42734 l 0.03967,-0.11649 -0.02766,-0.12004 c -0.14328,-0.62174 -0.325143,-1.22225 -0.518331,-1.71153 -0.05573,-0.14115 -0.147883,-0.38894 -0.16119,-0.43343 -0.0063,-0.0209 -0.0145,-0.0635 -0.0183,-0.0946 -0.0038,-0.0311 -0.01217,-0.0885 -0.01861,-0.12748 -0.01885,-0.11421 -0.02007,-0.14144 -0.0095,-0.21284 0.01889,-0.12797 0.05787,-0.22509 0.116054,-0.28921 0.043,-0.0474 0.105915,-0.0818 0.321271,-0.17586 0.171061,-0.0747 0.281846,-0.11511 0.418432,-0.15259 0.05456,-0.015 0.125492,-0.0365 0.157627,-0.0478 0.186862,-0.0657 0.6365253,-0.14721 1.1443648,-0.20735 0.1261437,-0.0149 0.1858662,-0.0181 0.392254,-0.0208 0.3149577,-0.004 0.4146323,0.005 0.7547389,0.069 0.214863,0.0404 0.2416061,0.0508 0.3433481,0.13366 0.037611,0.0306 0.079964,0.0648 0.094118,0.0759 0.032753,0.0258 0.089641,0.0924 0.1125622,0.13178 0.04747,0.0815 0.070454,0.22949 0.079792,0.5136 0.0094,0.28584 0.00415,0.4105 -0.022316,0.5305 -0.011477,0.052 -0.036337,0.16984 -0.055244,0.26179 -0.018907,0.092 -0.069081,0.32611 -0.1114968,0.52036 -0.1027955,0.47076 -0.1240201,0.58935 -0.1581579,0.88368 -0.027498,0.23708 -0.031923,0.29761 -0.035816,0.48995 -0.00454,0.22449 0.00121,0.275 0.063121,0.55415 0.053745,0.24232 0.063425,0.30986 0.090076,0.62848 0.01026,0.12266 0.021412,0.24726 0.024782,0.2769 0.00337,0.0296 0.00613,0.11943 0.00613,0.19953 v 0.14565 l 0.026272,0.0133 c 0.014736,0.007 0.031003,0.0224 0.037046,0.034 0.033164,0.0635 0.023514,0.23097 -0.021587,0.37473 -0.020026,0.0638 -0.018604,0.16619 0.00372,0.26814 0.024782,0.11316 0.022774,0.2438 -0.00855,0.55633 -0.042552,0.42458 -0.1061197,0.85649 -0.1519495,1.03244 -0.041547,0.1595 -0.07465,0.23187 -0.1591638,0.34796 -0.1331245,0.18288 -0.3469939,0.38018 -0.5069897,0.46773 -0.081721,0.0447 -0.2718959,0.12486 -0.3915511,0.16501 -0.2316366,0.0777 -1.0792289,0.14388 -1.5607122,0.12182 z m -0.28107,-4.20453 c 0.100289,-0.18536 0.118329,-0.23349 0.1235,-0.32949 0.0019,-0.0353 2.8e-4,-0.0996 -0.0036,-0.14289 -0.0084,-0.094 -0.03544,-0.27269 -0.04478,-0.29631 -0.0065,-0.0165 -0.0069,-0.0165 -0.01557,-0.004 -0.0094,0.0141 -0.08576,0.2626 -0.112085,0.36502 -0.01321,0.0514 -0.01613,0.0799 -0.01883,0.18405 -0.0035,0.13521 0.003,0.33477 0.0107,0.32956 0.0027,-0.002 0.02999,-0.0497 0.06067,-0.1064 z m 7.5819553,3.94122 c -0.01642,-0.003 -0.08198,-0.009 -0.1456994,-0.0131 -0.2520786,-0.0166 -0.3022927,-0.0297 -0.7990057,-0.20858 -0.1233954,-0.0444 -0.2461546,-0.0874 -0.2727983,-0.0955 -0.026644,-0.008 -0.079134,-0.0255 -0.1166436,-0.0385 -0.081577,-0.0285 -0.153281,-0.0368 -0.2487158,-0.0289 -0.1428905,0.0118 -0.3696888,0.0559 -0.4109297,0.0799 -0.080955,0.0472 -0.1088385,0.0618 -0.1184565,0.0618 -0.006,0 -0.037349,0.0104 -0.069659,0.0232 -0.1018703,0.0402 -0.194109,0.0525 -0.3266989,0.0437 -0.1233153,-0.008 -0.2737522,-0.0254 -0.3247209,-0.0369 -0.1466353,-0.0334 -0.5569296,-0.15169 -0.624306,-0.18003 -0.1265985,-0.0532 -0.3550747,-0.20141 -0.4164187,-0.27002 l -0.028921,-0.0324 -0.019039,0.0236 c -0.010471,0.013 -0.020707,0.0319 -0.022745,0.0421 -0.00204,0.0102 -0.00781,0.0321 -0.012819,0.0489 -0.00501,0.0167 -0.010775,0.0511 -0.012805,0.0763 -0.00307,0.0382 -0.00629,0.0481 -0.019106,0.0591 -0.035815,0.0307 -0.048899,0.0101 -0.042923,-0.0676 0.00446,-0.058 0.032354,-0.13696 0.07238,-0.20487 l 0.030959,-0.0525 -0.033304,-0.1 c -0.066724,-0.20035 -0.0753,-0.26172 -0.056572,-0.40486 0.00591,-0.0452 0.00978,-0.0971 0.00859,-0.11533 l -0.00217,-0.0332 0.020319,0.0169 c 0.011175,0.009 0.022118,0.0149 0.024317,0.0126 0.0022,-0.002 7.393e-4,-0.0325 -0.00324,-0.0668 -0.00398,-0.0344 -0.011487,-0.12633 -0.016674,-0.20439 -0.010583,-0.15924 -0.015386,-0.19455 -0.037319,-0.27443 -0.050049,-0.18226 -0.045328,-0.24607 0.040691,-0.55003 0.042516,-0.15024 0.063067,-0.20338 0.1105123,-0.28575 0.06135,-0.10651 0.06984,-0.15956 0.041022,-0.25632 -0.031399,-0.10541 -0.027557,-0.1723 0.017147,-0.29845 l 0.025235,-0.0712 -0.014269,-0.0273 c -0.00785,-0.015 -0.035683,-0.0577 -0.061854,-0.0949 -0.085412,-0.1213 -0.1018798,-0.16642 -0.1011362,-0.27708 8.177e-4,-0.12169 0.030471,-0.20337 0.1312652,-0.36155 0.1166996,-0.18314 0.1215955,-0.20267 0.086267,-0.34416 -0.00805,-0.0322 -0.01154,-0.0625 -0.00976,-0.0845 0.00338,-0.0418 0.028776,-0.11275 0.062992,-0.17606 0.025399,-0.047 0.025483,-0.0474 0.023612,-0.10813 -0.00479,-0.15555 -0.01919,-0.30647 -0.050941,-0.53401 -0.036225,-0.25961 -0.043787,-0.35895 -0.043721,-0.57443 3.72e-5,-0.12143 -0.00243,-0.1813 -0.00879,-0.21287 -0.00486,-0.0242 -0.031441,-0.17317 -0.059063,-0.33114 -0.027622,-0.15797 -0.05572,-0.31306 -0.062439,-0.34465 -0.025835,-0.12147 -0.038021,-0.20987 -0.069944,-0.50739 -0.00756,-0.0704 -0.010632,-0.0821 -0.03075,-0.11635 -0.065647,-0.11186 -0.089164,-0.19329 -0.1121019,-0.38817 l -0.00894,-0.0759 0.032749,-0.0863 c 0.063833,-0.16812 0.095857,-0.22386 0.1806771,-0.31444 0.063359,-0.0677 0.1370255,-0.12797 0.1917406,-0.15695 0.090379,-0.0479 0.331738,-0.12562 0.5176968,-0.16674 0.061483,-0.0136 0.087945,-0.0156 0.1921988,-0.0149 0.1384217,0.001 0.2597206,0.0159 0.4362618,0.0537 0.399914,0.0856 0.6573562,0.18248 0.8409303,0.3165 0.1073647,0.0784 0.3261378,0.25797 0.4649971,0.3817 0.1381704,0.12312 0.2459537,0.20072 0.3869736,0.27862 0.124414,0.0687 0.1523815,0.0894 0.1672917,0.12365 0.015946,0.0366 0.029252,0.15365 0.029639,0.26067 4.216e-4,0.11582 -0.01,0.2051 -0.047664,0.4085 -0.015106,0.0816 -0.026853,0.14897 -0.026104,0.14976 7.477e-4,7.9e-4 0.038001,-0.0134 0.082785,-0.0314 0.1077212,-0.0435 0.169378,-0.0605 0.2193155,-0.0605 0.081966,0 0.1319489,0.0306 0.1513591,0.0927 0.019664,0.0629 0.011732,0.11182 -0.058381,0.36007 -0.1062326,0.37614 -0.1294019,0.43509 -0.3254019,0.82785 -0.051935,0.10407 -0.1079456,0.21677 -0.1244667,0.25044 l -0.030038,0.0612 0.020487,0.0278 c 0.019621,0.0266 0.020162,0.0289 0.012792,0.0537 -0.010445,0.0351 -0.04087,0.10066 -0.063212,0.13617 -0.010105,0.0161 -0.017407,0.0301 -0.016226,0.0312 0.00118,0.001 0.043997,0.018 0.095147,0.0375 0.1413442,0.0539 0.1848134,0.081 0.2264356,0.14137 0.055489,0.0805 0.096346,0.27913 0.1175879,0.57167 0.015856,0.21838 0.020019,0.39825 0.0251,1.08465 0.00299,0.40328 0.00723,0.74285 0.00943,0.75461 0.00374,0.02 0.00701,0.0223 0.051423,0.0358 0.026084,0.008 0.097645,0.0237 0.1590246,0.0351 l 0.1115992,0.0208 0.173599,-0.004 c 0.165704,-0.004 0.178252,-0.004 0.275899,0.0126 0.1741,0.029 0.243589,0.0563 0.492897,0.19321 0.234519,0.12881 0.251673,0.14184 0.340384,0.25857 0.02762,0.0363 0.06326,0.083 0.0792,0.10378 0.01594,0.0207 0.04384,0.0676 0.062,0.10403 l 0.03301,0.0663 0.0589,-9.4e-4 c 0.05345,-8.6e-4 0.062,8.2e-4 0.09248,0.0181 0.03892,0.0221 0.146105,0.13247 0.200174,0.20614 0.08294,0.11301 0.114703,0.23767 0.09868,0.38726 -0.01197,0.11172 -0.07809,0.2842 -0.142275,0.37116 -0.08285,0.11225 -0.164308,0.18551 -0.315151,0.28345 -0.191584,0.12439 -0.29786,0.17017 -0.50037,0.21554 -0.197814,0.0443 -0.288991,0.0557 -0.62596,0.078 -0.167136,0.0111 -0.190505,0.0114 -0.235512,0.003 z m -0.5290113,-2.65617 c -8.457e-4,-0.21545 -0.00776,-0.36618 -0.042883,-0.93537 -0.039797,-0.64488 -0.057268,-0.81606 -0.0995,-0.97491 -0.021548,-0.0811 -0.047106,-0.12991 -0.1000078,-0.19121 -0.069141,-0.0801 -0.1120916,-0.10505 -0.2016048,-0.11706 l -0.029457,-0.004 -0.03395,0.0738 c -0.082092,0.17841 -0.208656,0.502 -0.2266761,0.57954 l -0.00819,0.0352 0.018134,0.0154 c 0.063095,0.0537 0.22187,0.22777 0.2730959,0.29934 0.035483,0.0496 0.041375,0.0684 0.038204,0.12229 -0.00349,0.0593 -0.023237,0.10721 -0.062539,0.15171 -0.024314,0.0275 -0.075546,0.0695 -0.092345,0.0756 -0.00349,10e-4 0.00619,0.0219 0.021496,0.046 0.066535,0.10438 0.078078,0.15017 0.135241,0.53657 0.021449,0.14499 0.044421,0.23095 0.078441,0.2935 0.031754,0.0584 0.089977,0.1163 0.1469168,0.14616 0.047341,0.0248 0.1692043,0.0708 0.1802818,0.068 0.004,-10e-4 0.00589,-0.0793 0.00534,-0.22059 z m -0.5842081,0.0369 c -0.011479,-0.005 -0.022347,-0.008 -0.02415,-0.006 -0.00397,0.004 0.022709,0.0166 0.035721,0.0164 0.00511,-6e-5 -9.29e-5,-0.005 -0.011571,-0.01 z m -0.047451,-1.0573 c 0.028593,-0.0333 0.029394,-0.0354 0.026809,-0.0693 -0.00327,-0.0429 -0.051728,-0.15451 -0.081532,-0.18782 -0.022241,-0.0249 -0.051506,-0.0443 -0.057262,-0.038 -0.00638,0.007 0.019581,0.0614 0.045361,0.0952 0.02556,0.0335 0.057448,0.0972 0.057448,0.11486 0,0.005 -0.00848,0.0316 -0.018835,0.0581 -0.017388,0.0445 -0.01915,0.0613 -0.00645,0.0613 0.00274,0 0.018248,-0.0154 0.034459,-0.0343 z"
       id="path839"
       inkscape:connector-curvature="0" />
  </g>
</svg>
