<?xml version="1.0" encoding="UTF-8" standalone="no"?>
<!-- Created with Inkscape (http://www.inkscape.org/) -->

<svg
   xmlns:osb="http://www.openswatchbook.org/uri/2009/osb"
   xmlns:dc="http://purl.org/dc/elements/1.1/"
   xmlns:cc="http://creativecommons.org/ns#"
   xmlns:rdf="http://www.w3.org/1999/02/22-rdf-syntax-ns#"
   xmlns:svg="http://www.w3.org/2000/svg"
   xmlns="http://www.w3.org/2000/svg"
   xmlns:xlink="http://www.w3.org/1999/xlink"
   xmlns:sodipodi="http://sodipodi.sourceforge.net/DTD/sodipodi-0.dtd"
   xmlns:inkscape="http://www.inkscape.org/namespaces/inkscape"
   width="50"
   height="50"
   viewBox="0 0 13.229166 13.229167"
   version="1.1"
   id="svg8"
   inkscape:version="0.92.3 (2405546, 2018-03-11)"
   sodipodi:docname="empty.svg">
  <defs
     id="defs2">
    <inkscape:path-effect
       effect="spiro"
       id="path-effect6158"
       is_visible="true" />
    <linearGradient
       id="linearGradient6040"
       osb:paint="solid">
      <stop
         style="stop-color:#28170b;stop-opacity:1;"
         offset="0"
         id="stop6038" />
    </linearGradient>
    <linearGradient
       inkscape:collect="always"
       id="linearGradient3749">
      <stop
         style="stop-color:#280b0b;stop-opacity:1;"
         offset="0"
         id="stop3745" />
      <stop
         style="stop-color:#28170b;stop-opacity:1"
         offset="1"
         id="stop3747" />
    </linearGradient>
    <linearGradient
       inkscape:collect="always"
       xlink:href="#linearGradient3749"
       id="linearGradient3751"
       x1="45"
       y1="45"
       x2="25"
       y2="25"
       gradientUnits="userSpaceOnUse" />
  </defs>
  <sodipodi:namedview
     id="base"
     pagecolor="#ffffff"
     bordercolor="#666666"
     borderopacity="1.0"
     inkscape:pageopacity="0.0"
     inkscape:pageshadow="2"
     inkscape:zoom="12.4"
     inkscape:cx="6.9947551"
     inkscape:cy="21.740847"
     inkscape:document-units="mm"
     inkscape:current-layer="layer1"
     showgrid="true"
     units="px"
     inkscape:snap-grids="true"
     inkscape:window-width="1535"
     inkscape:window-height="876"
     inkscape:window-x="65"
     inkscape:window-y="24"
     inkscape:window-maximized="1">
    <inkscape:grid
       type="xygrid"
       id="grid3713" />
  </sodipodi:namedview>
  <metadata
     id="metadata5">
    <rdf:RDF>
      <cc:Work
         rdf:about="">
        <dc:format>image/svg+xml</dc:format>
        <dc:type
           rdf:resource="http://purl.org/dc/dcmitype/StillImage" />
        <dc:title></dc:title>
      </cc:Work>
    </rdf:RDF>
  </metadata>
  <g
     inkscape:label="Layer 1"
     inkscape:groupmode="layer"
     id="layer1"
     transform="translate(0,-283.77082)">
    <path
       style="fill:none;stroke:#000000;stroke-width:0.26458332px;stroke-linecap:butt;stroke-linejoin:miter;stroke-opacity:1"
       d="M 5.2916667,288.26874 C 4.8107968,288.12 4.3241942,287.97523 3.96875,287.73957 c -1.1758757,-0.89929 -1.7578234,-1.78014 -1.8520834,-2.64583 2.9435794,0.68239 5.9384797,0.7284 8.9958334,0 -0.107768,0.83579 -0.616542,1.7079 -1.8520833,2.64583 -0.3613451,0.23873 -0.8459244,0.38098 -1.3229167,0.52917"
       id="path3715"
       inkscape:connector-curvature="0"
       sodipodi:nodetypes="cccccc" />
    <path
       style="fill:none;stroke:#000000;stroke-width:0.26458332px;stroke-linecap:butt;stroke-linejoin:miter;stroke-opacity:1"
       d="m 3.96875,287.73957 c -3.15197221,0.96471 -3.22869485,4.20687 -2.6458334,7.9375"
       id="path3719"
       inkscape:connector-curvature="0"
       sodipodi:nodetypes="cc" />
    <path
       style="fill:none;stroke:#000000;stroke-width:0.26458332px;stroke-linecap:butt;stroke-linejoin:miter;stroke-opacity:1"
       d="m 9.2604166,287.73957 c 2.5702864,0.8915 3.5683884,3.41663 2.6458334,7.9375"
       id="path3721"
       inkscape:connector-curvature="0"
       sodipodi:nodetypes="cc" />
    <path
       style="fill:none;stroke:#000000;stroke-width:0.26458332px;stroke-linecap:butt;stroke-linejoin:miter;stroke-opacity:1"
       d="m 1.3229166,295.67707 c 3.5277778,0.70556 7.0555556,0.70556 10.5833334,0"
       id="path3723"
       inkscape:connector-curvature="0"
       sodipodi:nodetypes="cc" />
    <path
       style="fill:none;stroke:#000000;stroke-width:0.26458332px;stroke-linecap:butt;stroke-linejoin:miter;stroke-opacity:1"
       d="m 1.8520833,284.82915 c 3.1469938,-0.34727 6.3211091,-0.35824 9.5249997,0"
       id="path3725"
       inkscape:connector-curvature="0"
       sodipodi:nodetypes="cc" />
    <path
       style="fill:#a05a2c;stroke-width:0.08064516;fill-opacity:1;fill-rule:nonzero"
       d="M 21.857658,46.414108 C 18.100049,46.284435 14.438022,45.958996 10.647981,45.41792 9.0894383,45.195418 5.9065082,44.659587 5.5969378,44.567601 5.4450595,44.522471 5.397023,44.246884 5.0427462,41.388185 4.696119,38.591213 4.5554211,36.762317 4.5029915,34.372056 4.3690615,28.266204 5.3847858,23.888501 7.6929471,20.623564 8.3136556,19.74556 9.7604108,18.313386 10.688303,17.658397 c 0.856369,-0.6045 2.513376,-1.464034 3.537892,-1.835198 l 0.674988,-0.244536 0.494367,0.274632 c 0.794648,0.441444 2.047126,0.911598 4.336829,1.627952 0.103137,0.03227 0.170534,-0.07024 0.301859,-0.459115 0.09299,-0.275362 0.160254,-0.508583 0.149474,-0.518268 -0.01078,-0.0097 -0.501863,-0.168698 -1.091294,-0.353359 -1.224906,-0.383748 -2.710553,-0.96508 -3.242824,-1.268914 C 15.353644,14.59849 14.679674,14.076685 13.65806,13.184848 11.666773,11.446517 10.109973,9.4854696 9.3154312,7.7145855 9.0285616,7.0752074 8.6334371,5.8355248 8.6964374,5.7725246 c 0.024829,-0.024829 0.6918252,0.084317 1.4822146,0.2425459 5.6037,1.1218122 10.436088,1.5657564 16.074168,1.4767093 4.867342,-0.076874 8.599838,-0.4709829 13.215137,-1.3953673 0.992115,-0.1987079 1.820359,-0.3447743 1.840541,-0.324592 0.06886,0.068856 -0.528911,1.7278199 -0.859479,2.3852868 -1.029868,2.0483047 -2.749548,4.0057837 -5.333107,6.0705747 -0.857146,0.685035 -2.172163,1.286684 -4.202691,1.922823 -0.58943,0.184661 -1.079194,0.342355 -1.088364,0.35043 -0.0255,0.02246 0.260759,0.924347 0.30856,0.972149 0.05089,0.05089 2.132987,-0.60621 2.974241,-0.938658 0.332662,-0.131462 0.914111,-0.395862 1.29211,-0.587557 l 0.687271,-0.348536 0.643374,0.259792 c 8.195243,3.30921 11.357877,11.608068 9.468086,24.844576 -0.184407,1.291631 -0.627182,3.764836 -0.684226,3.82188 -0.150707,0.150707 -6.36944,1.105914 -8.946937,1.374264 -4.48462,0.466905 -9.57121,0.658079 -13.709678,0.515263 z"
       id="path3727"
       inkscape:connector-curvature="0"
       transform="matrix(0.26458333,0,0,0.26458333,0,283.77082)" />
    <path
       style="fill:#a02c2c;stroke-width:0.08064516"
       d="M 21.696368,6.3879668 C 18.767333,6.2315036 15.720139,5.8961796 12.906045,5.4206486 10.647165,5.0389386 8.1681991,4.5194065 8.2495592,4.4447603 8.2824008,4.4146287 9.180239,4.313111 10.244755,4.2191653 15.424518,3.7620407 17.980642,3.6400543 23.430239,3.589912 c 6.136873,-0.056466 10.071659,0.08315 15.403226,0.5465447 1.042339,0.090595 2.140121,0.1859302 2.439516,0.2118556 0.299395,0.025925 0.544355,0.070236 0.544355,0.098469 0,0.028232 -0.626008,0.1865355 -1.391129,0.3517847 -3.488739,0.7534904 -6.472201,1.1891816 -10.060484,1.4691868 -1.885814,0.1471562 -6.870929,0.2162827 -8.669355,0.120214 z"
       id="path3729"
       inkscape:connector-curvature="0"
       transform="matrix(0.26458333,0,0,0.26458333,0,283.77082)" />
    <path
       style="fill:#a05a2c;stroke-width:0.08064516"
       d="M 20.688304,46.337828 C 16.307657,46.097314 12.421157,45.685619 8.5691121,45.054047 6.9602387,44.79026 5.591883,44.538674 5.547744,44.498538 5.4571982,44.416202 4.9948763,40.872216 4.7474773,38.363992 4.541819,36.278951 4.5403487,30.683346 4.7450615,29.170443 c 0.2178094,-1.60969 0.5779974,-3.28325 0.9459382,-4.395161 0.3854786,-1.16491 1.1772611,-2.836895 1.7567486,-3.709677 0.8071414,-1.215658 2.0555347,-2.487851 3.3590297,-3.423066 0.638459,-0.458073 2.873602,-1.601486 3.646857,-1.865591 l 0.418557,-0.142958 0.750798,0.369199 c 0.412938,0.203058 1.022975,0.467526 1.355636,0.587705 1.133162,0.409373 2.694622,0.926324 2.797979,0.926324 0.108997,0 0.293417,-0.378071 0.382693,-0.784542 l 0.05341,-0.243162 -1.333584,-0.45163 C 17.406579,15.539194 16.145874,15.023811 15.681569,14.730708 15.015013,14.30993 13.653991,13.148795 12.616939,12.116167 10.85199,10.358746 9.7757833,8.8185444 9.1472019,7.1504898 8.758046,6.1177943 8.6907501,5.8236692 8.8436249,5.8236692 c 0.061032,0 0.8692255,0.1444438 1.7959861,0.3209863 3.054772,0.5819157 5.989092,0.9803826 9.040628,1.2276739 1.725939,0.1398672 8.957347,0.1394577 10.766129,-6.097e-4 3.03731,-0.2352014 5.419067,-0.5586545 8.776642,-1.1919067 1.079169,-0.2035356 1.982292,-0.3498984 2.006939,-0.3252508 0.05981,0.059805 -0.408428,1.3941698 -0.747564,2.1303969 -0.804511,1.7465055 -2.581409,3.8642389 -4.794081,5.7136599 -1.301284,1.087653 -2.271539,1.583886 -4.621537,2.36367 l -1.274762,0.422995 0.05411,0.25387 c 0.08422,0.395107 0.260418,0.778064 0.357996,0.778064 0.270351,0 3.139544,-1.029254 3.949826,-1.416906 l 0.950893,-0.454923 0.856421,0.362983 c 4.79733,2.033283 7.799525,5.787822 9.073704,11.347555 0.805539,3.514872 0.850011,8.228512 0.125339,13.28455 -0.188825,1.317438 -0.557959,3.452333 -0.647844,3.746828 -0.04764,0.156097 -0.22939,0.198568 -2.332212,0.544998 -3.708629,0.610979 -6.946727,1.000454 -10.483871,1.26099 -1.659409,0.122228 -9.531744,0.225591 -11.008063,0.144535 z"
       id="path3731"
       inkscape:connector-curvature="0"
       transform="matrix(0.26458333,0,0,0.26458333,0,283.77082)" />
    <path
       style="fill:url(#linearGradient3751);stroke-width:0.08064516;fill-opacity:1"
       d="M 20.728626,6.2986485 C 17.098117,6.0488085 13.284563,5.5202514 9.6448143,4.7624365 8.1682991,4.4550182 8.1907534,4.4360829 10.244755,4.2565162 16.258478,3.7307794 17.421312,3.6865811 25.204433,3.6879124 c 5.759579,9.852e-4 7.341377,0.025643 9.07258,0.1414298 3.198204,0.2139024 7.169711,0.5540555 7.241699,0.6202397 0.07271,0.066845 -1.589248,0.4405317 -3.572344,0.8032333 -3.112338,0.5692363 -6.339454,0.9363622 -9.272219,1.0548343 -2.237687,0.090394 -6.572543,0.085483 -7.945523,-0.009 z"
       id="path3733"
       inkscape:connector-curvature="0"
       transform="matrix(0.26458333,0,0,0.26458333,0,283.77082)" />
    <path
       sodipodi:type="spiral"
       style="fill:none;fill-rule:evenodd;stroke:#000000;stroke-width:0.26458332"
       id="path3771"
       sodipodi:cx="6.0854168"
       sodipodi:cy="291.17914"
       sodipodi:expansion="1"
       sodipodi:revolution="3"
       sodipodi:radius="2.276032"
       sodipodi:argument="-18.229307"
       sodipodi:t0="0"
       d="m 6.0854168,291.17914 c 0.092861,0.0663 -0.043596,0.1579 -0.110243,0.15434 -0.1806094,-0.01 -0.2457881,-0.22806 -0.1984377,-0.37483 0.084699,-0.26253 0.404532,-0.34494 0.6394095,-0.24253 0.3446922,0.15028 0.4465275,0.58321 0.2866327,0.90399 -0.2131147,0.42754 -0.7626643,0.54912 -1.1685762,0.33073 -0.5107988,-0.27482 -0.6522328,-0.94247 -0.3748275,-1.43316 0.335975,-0.59429 1.1224721,-0.75564 1.6977428,-0.41892 0.6779366,0.3968 0.8592338,1.3026 0.4630223,1.96232 -0.4574418,0.76168 -1.482812,0.96295 -2.2269094,0.50712 -0.8454907,-0.51794 -1.0667569,-1.66308 -0.5512172,-2.49149 0.5783577,-0.92935 1.8433946,-1.17063 2.7560761,-0.59532 1.0132494,0.63871 1.2745408,2.02374 0.639412,3.02066" />
    <path
       style="fill:#a05a2c;fill-opacity:1;fill-rule:nonzero;stroke-width:0.08064516"
       d="M 20.510884,46.332418 C 18.099779,46.218856 14.469294,45.88739 11.801207,45.537219 9.8825844,45.28541 5.9388153,44.639061 5.700153,44.53731 5.5779221,44.485198 5.5021941,44.348313 5.4443535,44.074927 5.3155325,43.466052 4.9944308,40.748725 5.0452919,40.697864 c 0.025122,-0.02512 0.3360974,0.100344 0.6910564,0.278814 3.186718,1.60225 6.9978317,2.691143 10.9438907,3.126834 1.646015,0.181739 4.964252,0.180993 6.653226,-0.0015 6.636859,-0.717098 12.51097,-3.231639 17.459677,-7.473992 1.509967,-1.294442 3.358609,-3.236782 4.431703,-4.656322 0.19628,-0.25965 0.347591,-0.392932 0.393716,-0.346807 0.116093,0.116092 0.0066,5.180539 -0.14133,6.537485 -0.257814,2.364773 -0.865579,6.16633 -1.009651,6.315334 -0.08525,0.08817 -1.73824,0.388318 -4.037341,0.733092 -4.226995,0.633882 -6.990031,0.913225 -10.846774,1.09661 -1.510016,0.0718 -7.715889,0.0889 -9.072581,0.025 z"
       id="path6160"
       inkscape:connector-curvature="0"
       transform="matrix(0.26458333,0,0,0.26458333,0,283.77082)" />
    <path
       style="fill:#502d16;fill-opacity:1;fill-rule:nonzero;stroke-width:0.08064516"
       d="M 19.785078,46.300456 C 16.985695,46.135699 13.371092,45.777115 10.873787,45.416417 8.9397935,45.137081 5.7996391,44.600407 5.6574748,44.524915 5.4783881,44.429816 5.4641263,44.371572 5.2744727,42.960766 5.0583098,41.35276 4.9933502,40.662379 5.0582123,40.662379 c 0.02941,0 0.2975262,0.122531 0.5958141,0.272293 3.3766174,1.695294 7.4134856,2.821442 11.4697606,3.199672 1.387912,0.129416 4.7487,0.106207 6.169355,-0.04261 6.677549,-0.699468 12.557434,-3.223337 17.576528,-7.544508 1.070903,-0.921989 3.139624,-3.061052 3.994051,-4.129857 0.375916,-0.470234 0.711601,-0.837592 0.745968,-0.816352 0.09144,0.05651 0.0763,3.794798 -0.02097,5.175277 -0.115892,1.644847 -0.440775,4.199694 -0.769585,6.051944 -0.152411,0.858564 -0.295331,1.590506 -0.3176,1.626538 -0.05311,0.08593 -0.582587,0.19683 -2.297102,0.481129 -4.582871,0.759927 -8.356113,1.172602 -12.540323,1.371521 -1.945261,0.09248 -8.265026,0.08802 -9.879032,-0.007 z"
       id="path6164"
       inkscape:connector-curvature="0"
       transform="matrix(0.26458333,0,0,0.26458333,0,283.77082)" />
  </g>
</svg>
