<?xml version="1.0" encoding="UTF-8" standalone="no"?>
<!-- Created with Inkscape (http://www.inkscape.org/) -->

<svg
   xmlns:osb="http://www.openswatchbook.org/uri/2009/osb"
   xmlns:dc="http://purl.org/dc/elements/1.1/"
   xmlns:cc="http://creativecommons.org/ns#"
   xmlns:rdf="http://www.w3.org/1999/02/22-rdf-syntax-ns#"
   xmlns:svg="http://www.w3.org/2000/svg"
   xmlns="http://www.w3.org/2000/svg"
   xmlns:sodipodi="http://sodipodi.sourceforge.net/DTD/sodipodi-0.dtd"
   xmlns:inkscape="http://www.inkscape.org/namespaces/inkscape"
   width="50"
   height="50"
   viewBox="0 0 13.229166 13.229167"
   version="1.1"
   id="svg8"
   sodipodi:docname="head.svg"
   inkscape:version="0.92.3 (2405546, 2018-03-11)">
  <defs
     id="defs2">
    <inkscape:path-effect
       effect="spiro"
       id="path-effect6397"
       is_visible="true" />
    <inkscape:path-effect
       effect="spiro"
       id="path-effect6158"
       is_visible="true" />
    <linearGradient
       id="linearGradient6040"
       osb:paint="solid">
      <stop
         style="stop-color:#28170b;stop-opacity:1;"
         offset="0"
         id="stop6038" />
    </linearGradient>
  </defs>
  <sodipodi:namedview
     id="base"
     pagecolor="#ffffff"
     bordercolor="#666666"
     borderopacity="1.0"
     inkscape:pageopacity="0.0"
     inkscape:pageshadow="2"
     inkscape:zoom="12.4"
     inkscape:cx="27.602207"
     inkscape:cy="27.144073"
     inkscape:document-units="mm"
     inkscape:current-layer="layer1"
     showgrid="true"
     units="px"
     inkscape:snap-grids="true"
     inkscape:window-width="1535"
     inkscape:window-height="876"
     inkscape:window-x="65"
     inkscape:window-y="24"
     inkscape:window-maximized="1">
    <inkscape:grid
       type="xygrid"
       id="grid3713" />
  </sodipodi:namedview>
  <metadata
     id="metadata5">
    <rdf:RDF>
      <cc:Work
         rdf:about="">
        <dc:format>image/svg+xml</dc:format>
        <dc:type
           rdf:resource="http://purl.org/dc/dcmitype/StillImage" />
        <dc:title></dc:title>
      </cc:Work>
    </rdf:RDF>
  </metadata>
  <g
     inkscape:label="Layer 1"
     inkscape:groupmode="layer"
     id="layer1"
     transform="translate(0,-283.77082)">
    <path
       style="fill:none;stroke:#000000;stroke-width:0.26458332px;stroke-linecap:butt;stroke-linejoin:miter;stroke-opacity:1"
       d="m 6.6145832,286.41665 c -4.0162997,-0.29497 -4.2246464,3.56782 -3.9687499,7.9375"
       id="path6331"
       inkscape:connector-curvature="0"
       sodipodi:nodetypes="cc" />
    <path
       style="fill:none;stroke:#000000;stroke-width:0.26458332px;stroke-linecap:butt;stroke-linejoin:miter;stroke-opacity:1"
       d="m 6.6145833,286.41665 c 4.0162997,-0.29497 4.2246467,3.56782 3.9687497,7.9375"
       id="path6331-7"
       inkscape:connector-curvature="0"
       sodipodi:nodetypes="cc" />
    <path
       style="fill:none;stroke:#000000;stroke-width:0.26458332px;stroke-linecap:butt;stroke-linejoin:miter;stroke-opacity:1"
       d="m 2.6458333,294.35415 c 2.6458332,1.41112 5.2916665,1.41112 7.9374997,0"
       id="path6348"
       inkscape:connector-curvature="0"
       sodipodi:nodetypes="cc" />
    <path
       style="fill:none;stroke:#000000;stroke-width:0.26458332px;stroke-linecap:butt;stroke-linejoin:miter;stroke-opacity:1"
       d="m 9.2604167,290.3854 c 0.079916,-0.41648 0.5544955,-0.71201 -1e-7,-1.32291 -1.7638889,0.35277 -3.5277777,0.35277 -5.2916666,0 -0.4465569,0.32573 -0.2462879,0.81838 0,1.32291"
       id="path6350"
       inkscape:connector-curvature="0"
       sodipodi:nodetypes="cccc" />
    <path
       style="fill:none;stroke:#000000;stroke-width:0.26458332px;stroke-linecap:butt;stroke-linejoin:miter;stroke-opacity:1"
       d="m 3.96875,290.3854 c 0.5873048,0.46588 1.2205151,0.22021 1.8520833,0"
       id="path6352"
       inkscape:connector-curvature="0"
       sodipodi:nodetypes="cc" />
    <path
       style="fill:none;stroke:#000000;stroke-width:0.26458332px;stroke-linecap:butt;stroke-linejoin:miter;stroke-opacity:1"
       d="m 9.2604166,290.3854 c -0.5197879,0.43212 -1.1749544,0.26469 -1.8520834,0"
       id="path6354"
       inkscape:connector-curvature="0"
       sodipodi:nodetypes="cc" />
    <path
       style="fill:none;stroke:#000000;stroke-width:0.26458332px;stroke-linecap:butt;stroke-linejoin:miter;stroke-opacity:1"
       d="m 5.8208333,290.3854 c -0.3332477,0.85507 -0.3718685,1.7339 0,2.64584"
       id="path6356"
       inkscape:connector-curvature="0"
       sodipodi:nodetypes="cc" />
    <path
       style="fill:none;stroke:#000000;stroke-width:0.26458332px;stroke-linecap:butt;stroke-linejoin:miter;stroke-opacity:1"
       d="m 7.4083332,290.3854 c 0.352778,0.88195 0.352778,1.76389 0,2.64584 -0.5953932,1.64241 -1.1051948,1.16216 -1.5874999,0"
       id="path6358"
       inkscape:connector-curvature="0"
       sodipodi:nodetypes="ccc" />
    <path
       sodipodi:type="star"
       style="fill:#000000;fill-opacity:1;fill-rule:nonzero;stroke:#ff0000;stroke-width:0.26458332;stroke-opacity:1"
       id="path6362"
       sodipodi:sides="5"
       sodipodi:cx="6.6663819"
       sodipodi:cy="287.67711"
       sodipodi:r1="1.0583333"
       sodipodi:r2="0.52916664"
       sodipodi:arg1="1.5707963"
       sodipodi:arg2="2.1991149"
       inkscape:flatsided="false"
       inkscape:rounded="0"
       inkscape:randomized="0"
       d="m 6.6663819,288.73546 -0.3110364,-0.63023 -0.6954984,-0.10106 0.5032674,-0.49057 -0.1188054,-0.69269 0.6220728,0.32705 0.6220726,-0.32705 -0.1188053,0.69269 0.5032674,0.49057 -0.6954984,0.10106 z"
       inkscape:transform-center-y="0.10106179" />
    <path
       style="fill:#6c5353;fill-opacity:1;fill-rule:nonzero;stroke:#ff0000;stroke-width:0.08064516;stroke-opacity:1"
       d="m 23.698981,43.432129 c -4.348084,-0.295362 -7.935504,-1.248585 -12.032946,-3.197306 -0.883391,-0.420135 -1.113681,-0.563688 -1.146104,-0.714436 -0.0465,-0.216173 -0.180847,-3.523656 -0.251712,-6.196718 -0.09243,-3.486614 0.181696,-7.977311 0.64982,-10.645161 1.329518,-7.576941 4.670805,-11.389281 10.601407,-12.095987 0.80083,-0.09543 6.506518,-0.111102 6.564039,-0.01803 0.03421,0.05536 -2.568711,1.466943 -2.830359,1.534921 -0.05449,0.01416 -0.771228,-0.324118 -1.592742,-0.751726 -0.896788,-0.466788 -1.493438,-0.734884 -1.493102,-0.670903 3.06e-4,0.05861 0.12604,0.814226 0.279407,1.679145 l 0.278849,1.572581 -1.210859,1.198924 c -0.665973,0.659409 -1.198038,1.211746 -1.182368,1.227416 0.01567,0.01567 0.768575,0.139543 1.673122,0.275273 0.904546,0.135729 1.651563,0.254763 1.660037,0.264519 0.0085,0.0098 0.359272,0.706017 0.779552,1.547246 l 0.764144,1.529507 0.737938,-1.523881 c 0.405865,-0.838135 0.748477,-1.534421 0.761358,-1.547303 0.01288,-0.01288 0.761375,-0.132342 1.663318,-0.265468 0.901943,-0.133126 1.659321,-0.261471 1.683061,-0.285212 0.02374,-0.02374 -0.502195,-0.567167 -1.168746,-1.207615 l -1.21191,-1.164451 0.286211,-1.697865 0.286212,-1.697864 H 28.4687 c 0.379124,0 1.890395,0.317651 2.547631,0.535482 1.647708,0.546108 2.987928,1.385701 4.158164,2.60492 3.810236,3.969723 5.10271,11.387829 4.358878,25.017608 l -0.05131,0.940269 -1.17783,0.564275 c -3.972834,1.903307 -7.553246,2.876273 -11.621377,3.158075 -1.098198,0.07607 -2.148016,0.08655 -2.983871,0.02977 z m 2.137342,-4.088246 c 0.458507,-0.213517 1.072144,-0.847597 1.478151,-1.527396 0.67879,-1.136531 1.627078,-3.652031 1.952107,-5.178302 0.11746,-0.551567 0.185585,-1.232638 0.215548,-2.154907 0.04897,-1.507442 -0.0435,-2.488996 -0.34766,-3.690018 -0.106454,-0.420353 -0.193553,-0.791431 -0.193553,-0.824617 0,-0.03318 0.0998,-0.02229 0.221775,0.02422 0.545613,0.208026 1.900741,0.480724 2.600806,0.523373 0.537527,0.03275 0.955678,0.0091 1.401381,-0.07909 0.630071,-0.124734 1.602135,-0.548549 1.981439,-0.863897 0.167664,-0.139395 0.182719,-0.187469 0.100123,-0.319726 -0.08634,-0.138253 -0.07459,-0.155662 0.105084,-0.155662 0.111263,0 0.202296,-0.04004 0.202296,-0.08897 0,-0.04894 0.208669,-0.547927 0.463709,-1.108871 0.460633,-1.013131 0.46371,-1.024992 0.46371,-1.787722 0,-0.700552 -0.02256,-0.813603 -0.257457,-1.290323 -0.141602,-0.287373 -0.43437,-0.719848 -0.650595,-0.961055 l -0.393138,-0.438558 -1.209302,0.218626 c -3.072644,0.555495 -5.685354,0.783312 -8.981443,0.783143 -3.271322,-1.68e-4 -5.940409,-0.231576 -8.882195,-0.770081 -0.604964,-0.11074 -1.152727,-0.201347 -1.21725,-0.201347 -0.218016,0 -0.952158,0.794184 -1.17369,1.269682 -0.292536,0.627899 -0.303598,1.628517 -0.02786,2.520641 0.290101,0.938612 0.820856,2.031954 0.960403,1.978406 0.07894,-0.03029 0.101716,-0.0059 0.07049,0.07545 -0.0541,0.140987 0.282002,0.413879 0.874941,0.710388 1.297241,0.648707 2.759651,0.689173 4.654705,0.1288 0.431055,-0.127465 0.797993,-0.231754 0.815417,-0.231754 0.01742,0 -0.06818,0.409388 -0.190241,0.909751 -0.864994,3.545972 -0.307509,7.03914 1.686501,10.567516 1.044113,1.847546 2.127982,2.496816 3.275799,1.962302 z"
       id="path6364"
       inkscape:connector-curvature="0"
       transform="matrix(0.26458333,0,0,0.26458333,0,283.77082)" />
    <path
       style="fill:#483737;fill-opacity:1;fill-rule:nonzero;stroke:#ff0000;stroke-width:0.08064516;stroke-opacity:1"
       d="m 24.439909,18.274715 c -0.69589,-1.394195 -0.76279,-1.497927 -0.943755,-1.463334 -0.107125,0.02048 -0.205506,0.005 -0.218625,-0.03433 -0.01312,-0.03936 -0.249942,-0.07945 -0.526274,-0.08909 -0.276331,-0.0096 -0.50275,-0.04872 -0.503154,-0.08683 -4.03e-4,-0.03812 -0.127749,-0.05448 -0.282991,-0.03635 -0.155242,0.01812 -0.282258,-1.71e-4 -0.282258,-0.04065 0,-0.04048 -0.110469,-0.05739 -0.245486,-0.03757 -0.135018,0.01982 -0.264176,0.0058 -0.287018,-0.03117 -0.02284,-0.03696 -0.164264,-0.0672 -0.31427,-0.0672 -0.150007,0 -0.291063,-0.02965 -0.313458,-0.06588 -0.02239,-0.03624 0.481565,-0.587233 1.119909,-1.224439 0.641718,-0.640573 1.136649,-1.197026 1.106996,-1.244601 -0.0295,-0.04732 -0.04354,-0.164232 -0.0312,-0.259794 0.01234,-0.09556 -0.01441,-0.196522 -0.05945,-0.224356 -0.04504,-0.02783 -0.06144,-0.103881 -0.03646,-0.168993 0.02499,-0.06511 0.018,-0.181893 -0.01551,-0.259514 -0.03352,-0.07762 -0.05295,-0.222783 -0.04318,-0.322581 0.0098,-0.0998 -0.01484,-0.181452 -0.05469,-0.181452 -0.03985,0 -0.05647,-0.108871 -0.03694,-0.241935 0.01953,-0.133065 0.0014,-0.241936 -0.04032,-0.241936 -0.04171,0 -0.05985,-0.108871 -0.04032,-0.241935 0.02079,-0.141642 -6.69e-4,-0.241936 -0.05176,-0.241936 -0.048,0 -0.06638,-0.05443 -0.04085,-0.120967 0.02553,-0.06653 0.01935,-0.184476 -0.01373,-0.262097 -0.07873,-0.184728 -0.104004,-0.424072 -0.04444,-0.420822 0.02585,0.0014 0.115861,0.05468 0.200016,0.118384 0.08416,0.0637 0.183954,0.0967 0.221775,0.07332 0.03782,-0.02337 0.06876,-0.0019 0.06876,0.04766 0,0.04959 0.03629,0.06774 0.08065,0.04032 0.04435,-0.02741 0.08065,-0.0054 0.08065,0.049 0,0.05437 0.02247,0.07638 0.04992,0.04892 0.02746,-0.02746 0.102964,0.0031 0.167791,0.06795 0.06483,0.06483 0.151234,0.09725 0.192013,0.07204 0.04078,-0.0252 0.07414,-0.01049 0.07414,0.03268 0,0.07831 1.691695,0.9794 1.838719,0.9794 0.04261,0 0.695176,-0.326613 1.450136,-0.725807 0.75496,-0.399193 1.390147,-0.725806 1.411526,-0.725806 0.02138,0 0.05785,0.07258 0.08105,0.16129 0.0232,0.08871 0.0052,0.161291 -0.04007,0.161291 -0.04551,0 -0.06639,0.108053 -0.04674,0.241935 0.01953,0.133065 0.0014,0.241936 -0.04032,0.241936 -0.04171,0 -0.05985,0.108871 -0.04032,0.241935 0.01953,0.133065 0.0014,0.241936 -0.04032,0.241936 -0.04171,0 -0.05998,0.107985 -0.04061,0.239967 0.01937,0.131982 0.0056,0.249925 -0.03054,0.262096 -0.03617,0.01217 -0.07511,0.212394 -0.08655,0.444939 -0.01144,0.232544 -0.05213,0.423069 -0.09043,0.423387 -0.0383,3.18e-4 -0.05366,0.109449 -0.03413,0.242514 0.02048,0.139514 -8.27e-4,0.241935 -0.05032,0.241935 -0.04721,0 0.453005,0.539736 1.111583,1.199414 1.351757,1.354014 1.354381,1.3659 0.304585,1.379284 -0.104243,0.0013 -0.231237,0.02819 -0.282209,0.0597 -0.05097,0.0315 -0.192498,0.04681 -0.3145,0.03401 -0.122003,-0.0128 -0.221823,0.0085 -0.221823,0.04726 0,0.03879 -0.127016,0.0557 -0.282258,0.03758 -0.180334,-0.02105 -0.282258,0.0011 -0.282258,0.06127 0,0.05183 -0.03796,0.07077 -0.08436,0.04209 -0.0464,-0.02868 -0.268201,-0.02685 -0.492894,0.004 l -0.408533,0.05619 -0.724929,1.483127 c -0.398711,0.81572 -0.730792,1.483127 -0.737956,1.483127 -0.0072,0 -0.35007,-0.675255 -0.762011,-1.500567 z m 1.234878,-1.550203 0.403226,-0.779875 0.86114,-0.120968 c 0.473627,-0.06653 0.884402,-0.144645 0.912832,-0.173585 0.02843,-0.02894 -0.243629,-0.337407 -0.604579,-0.685484 l -0.656271,-0.632866 0.1587,-0.92742 c 0.08728,-0.51008 0.146034,-0.940717 0.130554,-0.956971 -0.01548,-0.01625 -0.400269,0.169294 -0.855084,0.412329 l -0.826938,0.44188 -0.834561,-0.441708 c -0.459008,-0.24294 -0.846271,-0.428488 -0.860584,-0.412329 -0.01431,0.01616 0.04679,0.441165 0.135791,0.944458 l 0.161816,0.915078 -0.674143,0.677664 c -0.370779,0.372715 -0.6568,0.680014 -0.635602,0.682885 0.0212,0.0029 0.437736,0.06658 0.925639,0.141568 l 0.887097,0.136346 0.42987,0.833132 c 0.236429,0.458222 0.454171,0.808969 0.483871,0.779436 0.0297,-0.02953 0.235452,-0.404639 0.457226,-0.83357 z"
       id="path6366"
       inkscape:connector-curvature="0"
       transform="matrix(0.26458333,0,0,0.26458333,0,283.77082)" />
    <path
       style="fill:#000000;fill-opacity:1;fill-rule:nonzero;stroke:#ff0000;stroke-width:0.08064516;stroke-opacity:1"
       d="m 24.783333,16.690605 c -0.210974,-0.410283 -0.416427,-0.767604 -0.456562,-0.794047 -0.04014,-0.02644 -0.433694,-0.09582 -0.874575,-0.154176 -0.440881,-0.05835 -0.801602,-0.12664 -0.801602,-0.151749 0,-0.02511 0.275758,-0.323039 0.612796,-0.662065 l 0.612797,-0.616412 -0.142876,-0.816315 c -0.07858,-0.448973 -0.120347,-0.838843 -0.09281,-0.866377 0.02753,-0.02753 0.389069,0.132692 0.803411,0.356058 l 0.753349,0.406119 0.74769,-0.405437 c 0.41123,-0.22299 0.769265,-0.383862 0.795634,-0.357493 0.02637,0.02637 -0.01353,0.418115 -0.08867,0.870547 l -0.136616,0.822603 0.607973,0.611559 c 0.334384,0.336358 0.607972,0.633885 0.607972,0.661172 0,0.02729 -0.360737,0.09558 -0.801639,0.151772 -0.440901,0.05619 -0.835548,0.123785 -0.876993,0.150216 -0.04144,0.02643 -0.243572,0.383742 -0.449171,0.794025 -0.205598,0.410282 -0.387923,0.745967 -0.405164,0.745967 -0.01724,0 -0.203965,-0.335685 -0.414939,-0.745967 z"
       id="path6368"
       inkscape:connector-curvature="0"
       transform="matrix(0.26458333,0,0,0.26458333,0,283.77082)" />
    <path
       style="fill:#000000;fill-opacity:1;fill-rule:nonzero;stroke:#ff0000;stroke-width:0.08064516;stroke-opacity:1"
       d=""
       id="path6370"
       inkscape:connector-curvature="0"
       transform="matrix(0.26458333,0,0,0.26458333,0,283.77082)" />
    <path
       style="fill:#1a1a1a;fill-opacity:1;fill-rule:nonzero;stroke:#ff0000;stroke-width:0.08064516;stroke-opacity:1"
       d=""
       id="path6372"
       inkscape:connector-curvature="0"
       transform="matrix(0.26458333,0,0,0.26458333,0,283.77082)" />
    <path
       style="fill:#1a1a1a;fill-opacity:1;fill-rule:nonzero;stroke:#ff0000;stroke-width:0.08064516;stroke-opacity:1"
       d="m 24.787691,38.391068 c -0.586758,-0.323725 -1.257679,-1.308845 -1.982542,-2.910984 -1.477151,-3.264896 -1.646855,-6.212153 -0.550653,-9.5632 0.135578,-0.414458 0.234801,-0.76094 0.220495,-0.769961 -0.01431,-0.009 -0.124807,-0.05881 -0.245559,-0.110634 -0.124838,-0.05358 -0.241676,-0.182389 -0.27084,-0.298587 -0.02821,-0.112395 -0.08802,-0.204355 -0.132909,-0.204355 -0.04489,0 -0.5819,0.161091 -1.193355,0.35798 -1.352255,0.435427 -1.906177,0.541154 -2.810945,0.536525 -0.764114,-0.0039 -1.289962,-0.134094 -1.90466,-0.471538 -0.465699,-0.25565 -0.771218,-0.749705 -1.134289,-1.834258 -0.301738,-0.901339 -0.30512,-1.574431 -0.01044,-2.077264 0.120573,-0.205742 0.252043,-0.394361 0.292156,-0.419152 0.04011,-0.02479 0.59311,0.04525 1.228882,0.155648 2.914889,0.506154 5.493375,0.719746 8.696272,0.720368 3.257997,6.29e-4 5.804724,-0.210523 8.709677,-0.722141 l 1.08871,-0.191743 0.140536,0.178433 c 0.246477,0.312938 0.484539,0.867675 0.524498,1.222196 0.03926,0.348338 0.04459,0.332532 -0.748577,2.222365 -0.226895,0.540612 -0.58209,0.82413 -1.320689,1.054175 -1.049635,0.326922 -2.40348,0.193169 -4.209387,-0.415865 -0.51491,-0.173651 -0.961354,-0.315729 -0.992098,-0.315729 -0.03074,0 -0.0912,0.101252 -0.134337,0.225005 -0.04703,0.13491 -0.172678,0.260577 -0.313796,0.313843 l -0.235358,0.08884 0.279454,0.831446 c 0.505567,1.504186 0.627877,2.268055 0.631524,3.944093 0.0044,2.010658 -0.199992,3.029667 -1.047294,5.221956 -0.675135,1.746834 -1.387825,2.904597 -1.974867,3.208168 -0.270043,0.139645 -0.382398,0.144212 -0.599609,0.02437 z"
       id="path6374"
       inkscape:connector-curvature="0"
       transform="matrix(0.26458333,0,0,0.26458333,0,283.77082)" />
    <path
       style="fill:#483737;fill-opacity:1;fill-rule:nonzero;stroke:#ff0000;stroke-width:0.08064516;stroke-opacity:1"
       d="m 22.690916,43.27492 c -1.80797,-0.177711 -4.590436,-0.678568 -4.314516,-0.776632 0.06653,-0.02365 0.520162,-0.0838 1.008065,-0.133664 5.026476,-0.513761 10.204155,-3.066436 13.802014,-6.804604 2.654508,-2.758028 4.670867,-6.408579 5.634528,-10.201122 0.154659,-0.608673 0.282303,-1.179514 0.283652,-1.268535 0.0051,-0.338509 0.137032,0.07898 0.190916,0.604274 0.407127,3.968878 0.467056,9.382865 0.156573,14.144773 l -0.05203,0.797998 -1.145091,0.54671 c -3.895448,1.859833 -7.493432,2.835768 -11.572174,3.138894 -1.4043,0.104365 -2.585691,0.09013 -3.991936,-0.04809 z"
       id="path6399"
       inkscape:connector-curvature="0"
       transform="matrix(0.26458333,0,0,0.26458333,0,283.77082)" />
  </g>
</svg>
