<?xml version="1.0" encoding="UTF-8" standalone="no"?>
<!-- Created with Inkscape (http://www.inkscape.org/) -->

<svg
   xmlns:osb="http://www.openswatchbook.org/uri/2009/osb"
   xmlns:dc="http://purl.org/dc/elements/1.1/"
   xmlns:cc="http://creativecommons.org/ns#"
   xmlns:rdf="http://www.w3.org/1999/02/22-rdf-syntax-ns#"
   xmlns:svg="http://www.w3.org/2000/svg"
   xmlns="http://www.w3.org/2000/svg"
   xmlns:sodipodi="http://sodipodi.sourceforge.net/DTD/sodipodi-0.dtd"
   xmlns:inkscape="http://www.inkscape.org/namespaces/inkscape"
   width="50"
   height="50"
   viewBox="0 0 13.229166 13.229167"
   version="1.1"
   id="svg8"
   sodipodi:docname="sword.svg"
   inkscape:version="0.92.3 (2405546, 2018-03-11)">
  <defs
     id="defs2">
    <inkscape:path-effect
       effect="spiro"
       id="path-effect6397"
       is_visible="true" />
    <inkscape:path-effect
       effect="spiro"
       id="path-effect6158"
       is_visible="true" />
    <linearGradient
       id="linearGradient6040"
       osb:paint="solid">
      <stop
         style="stop-color:#28170b;stop-opacity:1;"
         offset="0"
         id="stop6038" />
    </linearGradient>
  </defs>
  <sodipodi:namedview
     id="base"
     pagecolor="#ffffff"
     bordercolor="#666666"
     borderopacity="1.0"
     inkscape:pageopacity="0.0"
     inkscape:pageshadow="2"
     inkscape:zoom="12.4"
     inkscape:cx="25.976978"
     inkscape:cy="22.815537"
     inkscape:document-units="mm"
     inkscape:current-layer="layer1"
     showgrid="true"
     units="px"
     inkscape:snap-grids="true"
     inkscape:window-width="1535"
     inkscape:window-height="876"
     inkscape:window-x="65"
     inkscape:window-y="24"
     inkscape:window-maximized="1">
    <inkscape:grid
       type="xygrid"
       id="grid3713" />
  </sodipodi:namedview>
  <metadata
     id="metadata5">
    <rdf:RDF>
      <cc:Work
         rdf:about="">
        <dc:format>image/svg+xml</dc:format>
        <dc:type
           rdf:resource="http://purl.org/dc/dcmitype/StillImage" />
        <dc:title></dc:title>
      </cc:Work>
    </rdf:RDF>
  </metadata>
  <g
     inkscape:label="Layer 1"
     inkscape:groupmode="layer"
     id="layer1"
     transform="translate(0,-283.77082)">
    <path
       style="fill:#000000;fill-opacity:1;fill-rule:nonzero;stroke:#ff0000;stroke-width:0.08064516;stroke-opacity:1"
       d=""
       id="path6370"
       inkscape:connector-curvature="0"
       transform="matrix(0.26458333,0,0,0.26458333,0,283.77082)" />
    <path
       style="fill:#1a1a1a;fill-opacity:1;fill-rule:nonzero;stroke:#ff0000;stroke-width:0.08064516;stroke-opacity:1"
       d=""
       id="path6372"
       inkscape:connector-curvature="0"
       transform="matrix(0.26458333,0,0,0.26458333,0,283.77082)" />
    <path
       style="fill:none;stroke:#000000;stroke-width:0.26458332px;stroke-linecap:butt;stroke-linejoin:miter;stroke-opacity:1"
       d="m 2.1166667,292.23749 0.5291666,-0.52917 5.2916666,2.64583 -0.5291666,0.52917"
       id="path6760"
       inkscape:connector-curvature="0" />
    <path
       style="fill:none;stroke:#000000;stroke-width:0.26458332px;stroke-linecap:butt;stroke-linejoin:miter;stroke-opacity:1"
       d="m 2.1166666,292.23749 5.2916666,2.64583"
       id="path6762"
       inkscape:connector-curvature="0" />
    <path
       style="fill:none;stroke:#000000;stroke-width:0.26458332px;stroke-linecap:butt;stroke-linejoin:miter;stroke-opacity:1"
       d="M 4.7625,293.56041 2.6458333,295.94166 3.175,296.20624 5.2916667,293.82499"
       id="path6764"
       inkscape:connector-curvature="0" />
    <path
       style="fill:none;stroke:#000000;stroke-width:0.26795396px;stroke-linecap:butt;stroke-linejoin:miter;stroke-opacity:1"
       d="m 4.4979167,292.76665 c 1.6184141,-2.81113 3.2439337,-5.60557 5.2916665,-7.40833"
       id="path6776"
       inkscape:connector-curvature="0"
       sodipodi:nodetypes="cc" />
    <path
       style="fill:none;stroke:#000000;stroke-width:0.26458332px;stroke-linecap:butt;stroke-linejoin:miter;stroke-opacity:1"
       d="m 6.0854166,293.29582 6.3500004,-8.46667"
       id="path6778"
       inkscape:connector-curvature="0" />
    <path
       style="fill:none;stroke:#000000;stroke-width:0.26458332px;stroke-linecap:butt;stroke-linejoin:miter;stroke-opacity:1"
       d="m 9.7895832,285.35832 c 1.1044858,-0.8696 1.8060398,-0.48403 2.6458338,-0.52917"
       id="path6780"
       inkscape:connector-curvature="0"
       sodipodi:nodetypes="cc" />
    <path
       style="fill:none;stroke:#000000;stroke-width:0.26458332px;stroke-linecap:butt;stroke-linejoin:miter;stroke-opacity:1"
       d="m 4.2333333,293.29582 -1.5875,2.64583"
       id="path6782"
       inkscape:connector-curvature="0" />
    <path
       style="fill:none;stroke:#000000;stroke-width:0.27145684px;stroke-linecap:butt;stroke-linejoin:miter;stroke-opacity:1"
       d="m 5.2916667,293.03124 3.4395832,-5.29167"
       id="path6784"
       inkscape:connector-curvature="0" />
    <path
       style="fill:#28220b;fill-opacity:1;fill-rule:nonzero;stroke:#c8ab37;stroke-width:0.08064516;stroke-opacity:1"
       d="m 11.366565,46.088007 -0.493867,-0.250318 3.634227,-4.089104 3.634227,-4.089104 0.474364,0.239458 c 0.260901,0.131702 0.474365,0.255141 0.474365,0.274308 0,0.01917 -1.626626,1.864151 -3.614725,4.099965 l -3.614725,4.065115 z"
       id="path6786"
       inkscape:connector-curvature="0"
       transform="matrix(0.26458333,0,0,0.26458333,0,283.77082)" />
    <path
       style="fill:#28220b;fill-opacity:1;fill-rule:nonzero;stroke:#c8ab37;stroke-width:0.08064516;stroke-opacity:1"
       d="m 13.7673,40.849329 c 0,-0.03625 0.551098,-0.984469 1.224661,-2.10716 l 1.22466,-2.041257 0.428565,0.210188 c 0.235712,0.115604 0.428566,0.234562 0.428566,0.264352 0,0.05226 -2.596897,3.009634 -3.072846,3.499396 -0.128483,0.132211 -0.233606,0.210728 -0.233606,0.174481 z"
       id="path6788"
       inkscape:connector-curvature="0"
       transform="matrix(0.26458333,0,0,0.26458333,0,283.77082)" />
    <path
       style="fill:#484537;fill-opacity:1;fill-rule:nonzero;stroke:#c8ab37;stroke-width:0.08064516;stroke-opacity:1"
       d="m 18.331837,36.552938 -9.4273993,-4.719399 0.5887602,-0.592716 0.5887601,-0.592716 9.443478,4.720557 c 5.193912,2.596306 9.459627,4.735758 9.479367,4.754336 0.05271,0.04961 -1.06533,1.159023 -1.162759,1.153787 -0.04554,-0.0024 -4.325138,-2.128179 -9.510207,-4.723849 z"
       id="path6790"
       inkscape:connector-curvature="0"
       transform="matrix(0.26458333,0,0,0.26458333,0,283.77082)" />
    <path
       style="fill:#6c6753;fill-opacity:1;fill-rule:nonzero;stroke:#6c6753;stroke-width:0.08064516;stroke-opacity:1"
       d="m 21.615375,35.209582 -0.821281,-0.42028 6.294101,-9.67742 c 3.461755,-5.32258 6.311361,-9.721043 6.332458,-9.774362 0.0211,-0.05332 -0.155382,-0.222563 -0.392175,-0.376098 -0.326115,-0.211453 -0.452848,-0.256397 -0.522542,-0.185315 -0.0506,0.05161 -2.894817,4.412388 -6.320471,9.690614 -3.425654,5.278226 -6.273064,9.644575 -6.327579,9.702998 -0.08113,0.08695 -0.254908,0.02875 -0.957755,-0.320804 -0.47225,-0.234867 -0.858637,-0.456795 -0.858637,-0.493174 0,-0.131478 3.382487,-5.903919 5.066947,-8.647084 4.654251,-7.579509 8.315585,-12.468512 12.350676,-16.4919359 1.970988,-1.96529 2.980193,-2.718915 4.432382,-3.3098875 C 41.116971,4.4081239 42.15097,4.296794 44.296432,4.4325574 L 45.923571,4.5355216 34.276867,20.065637 c -6.405688,8.541564 -11.690244,15.537791 -11.743458,15.54717 -0.05321,0.0094 -0.46633,-0.172071 -0.918034,-0.403225 z"
       id="path6792"
       inkscape:connector-curvature="0"
       transform="matrix(0.26458333,0,0,0.26458333,0,283.77082)" />
    <path
       style="fill:#484537;fill-opacity:1;fill-rule:nonzero;stroke:#918a6f;stroke-width:0.08064516;stroke-opacity:1"
       d="m 18.383784,36.498267 -9.3754518,-4.693426 0.5375581,-0.537558 0.5375577,-0.537558 9.382249,4.690917 c 5.160237,2.580005 9.382249,4.732444 9.382249,4.783199 0,0.09823 -0.938404,0.999819 -1.032823,0.992302 -0.03074,-0.0024 -4.27484,-2.116491 -9.431339,-4.697876 z"
       id="path6794"
       inkscape:connector-curvature="0"
       transform="matrix(0.26458333,0,0,0.26458333,0,283.77082)" />
  </g>
</svg>
